<?xml version="1.0" encoding="UTF-8"?>
<svg width="19px" height="19px" viewBox="0 0 19 19" version="1.1" xmlns="http://www.w3.org/2000/svg" xmlns:xlink="http://www.w3.org/1999/xlink">
    <!-- Generator: Sketch 51.2 (57519) - http://www.bohemiancoding.com/sketch -->
    <title>icon_checked</title>
    <desc>Created with Sketch.</desc>
    <defs></defs>
    <g id="Mobile---Master-Registration" stroke="none" stroke-width="1" fill="none" fill-rule="evenodd">
        <g id="Employee-ID" transform="translate(-20.000000, -217.000000)">
            <g id="Group-8" transform="translate(20.000000, 215.000000)">
                <g id="icon_checkbox" transform="translate(0.000000, 2.000000)">
                    <g id="tick">
                        <rect id="Rectangle" fill="#A20000" x="0" y="0" width="19" height="19" rx="5"></rect>
                        <ellipse id="Oval-6" fill="#FFFFFF" cx="10.5000417" cy="9" rx="7.50004174" ry="7"></ellipse>
                        <path d="M9.5,0 C4.26173135,0 0,4.26160998 0,9.49995043 C0,14.7382909 4.26173135,19 9.5,19 C14.7382687,19 19,14.7382909 19,9.49995043 C19,4.26160998 14.7383678,0 9.5,0 Z M14.9550677,7.89532888 L8.98670082,13.8636646 C8.73292603,14.1174381 8.39558398,14.2571126 8.03673056,14.2571126 C7.67787714,14.2571126 7.3405351,14.1174381 7.0867603,13.8636646 L4.04493233,10.8218525 C3.79115753,10.568079 3.65138314,10.2307387 3.65138314,9.87188718 C3.65138314,9.5129365 3.79115753,9.17559622 4.04493233,8.92182274 C4.298608,8.66804927 4.63595004,8.5282756 4.99490259,8.5282756 C5.35375601,8.5282756 5.69119719,8.66804927 5.94487285,8.92192187 L8.03663143,11.0135704 L13.0549289,5.99529914 C13.3087037,5.74152567 13.6460457,5.60185113 14.0048991,5.60185113 C14.3637526,5.60185113 14.7010946,5.74152567 14.9548694,5.99529914 C15.4788747,6.51930171 15.4788747,7.37152457 14.9550677,7.89532888 Z" id="Shape" fill="#A20000" fill-rule="nonzero"></path>
                    </g>
                </g>
            </g>
        </g>
    </g>
</svg>