<?xml version="1.0" encoding="UTF-8"?>
<svg width="26px" height="26px" viewBox="0 0 26 26" version="1.1" xmlns="http://www.w3.org/2000/svg" xmlns:xlink="http://www.w3.org/1999/xlink">
    <!-- Generator: Sketch 51.2 (57519) - http://www.bohemiancoding.com/sketch -->
    <title>icon_clear</title>
    <desc>Created with Sketch.</desc>
    <defs></defs>
    <g id="Symbols" stroke="none" stroke-width="1" fill="none" fill-rule="evenodd">
        <g id="Calendar" transform="translate(-336.000000, -15.000000)">
            <g id="Calenar-Slider">
                <g id="icon_clear" transform="translate(336.000000, 15.000000)">
                    <g id="Group">
                        <circle id="Oval" fill="#222222" cx="13" cy="13" r="13"></circle>
                        <path d="M14.0300205,13.0000203 L17.1200057,9.91003152 C17.4044425,9.62559434 17.4044425,9.16443174 17.1200057,8.88003525 C16.8355688,8.59559806 16.3744475,8.59559806 16.0900106,8.88003525 L12.9999847,11.9700648 L9.90995885,8.87999455 C9.625522,8.59555737 9.16440063,8.59555737 8.87996378,8.87999455 C8.59556763,9.16443174 8.59556763,9.62559434 8.87996378,9.90999083 L11.9699897,12.9999797 L8.87996378,16.0900092 C8.59556763,16.3744464 8.59556763,16.835609 8.87996378,17.1200054 C9.16440063,17.4044426 9.625522,17.4044426 9.90995885,17.1200054 L12.9999847,14.0299759 L16.0900106,17.1200054 C16.3744068,17.4044426 16.8355688,17.4044426 17.1200057,17.1200054 C17.4044425,16.8355683 17.4044425,16.3744464 17.1200057,16.0900092 L14.0300205,13.0000203 Z" id="Shape" fill="#FFFFFF" fill-rule="nonzero"></path>
                    </g>
                </g>
            </g>
        </g>
    </g>
</svg>