<?xml version="1.0" encoding="UTF-8"?>
<svg width="18px" height="18px" viewBox="0 0 18 18" version="1.1" xmlns="http://www.w3.org/2000/svg" xmlns:xlink="http://www.w3.org/1999/xlink">
    <!-- Generator: Sketch 51.2 (57519) - http://www.bohemiancoding.com/sketch -->
    <title>Shape</title>
    <desc>Created with Sketch.</desc>
    <defs></defs>
    <g id="Mobile---Master-Registration" stroke="none" stroke-width="1" fill="none" fill-rule="evenodd">
        <g id="Hamburger-Menu" transform="translate(-338.000000, -20.000000)" fill="#FFFFFF" fill-rule="nonzero">
            <g id="Clos-CTA" transform="translate(318.000000, 0.000000)">
                <path d="M31.1392733,29.0000423 L37.5569349,22.5823732 C38.1476884,21.991619 38.1476884,21.0338198 37.5569349,20.4431501 C36.9661815,19.852396 36.0084678,19.852396 35.4177144,20.4431501 L28.9999683,26.8609037 L22.5822222,20.4430656 C21.9914688,19.8523115 21.0337552,19.8523115 20.4430017,20.4430656 C19.8523328,21.0338198 19.8523328,21.991619 20.4430017,22.5822886 L26.8607478,28.9999577 L20.4430017,35.4177114 C19.8523328,36.0084655 19.8523328,36.9662648 20.4430017,37.5569344 C21.0337552,38.1476885 21.9914688,38.1476885 22.5822222,37.5569344 L28.9999683,31.1391808 L35.4177144,37.5569344 C36.0083833,38.1476885 36.9661815,38.1476885 37.5569349,37.5569344 C38.1476884,36.9661802 38.1476884,36.0084655 37.5569349,35.4177114 L31.1392733,29.0000423 Z" id="Shape"></path>
            </g>
        </g>
    </g>
</svg>