<?xml version="1.0" encoding="UTF-8"?>
<svg width="10px" height="14px" viewBox="0 0 10 14" version="1.1" xmlns="http://www.w3.org/2000/svg" xmlns:xlink="http://www.w3.org/1999/xlink">
    <!-- Generator: Sketch 51.2 (57519) - http://www.bohemiancoding.com/sketch -->
    <title>Icon Signout</title>
    <desc>Created with Sketch.</desc>
    <defs></defs>
    <g id="Mobile---Master-Registration" stroke="none" stroke-width="1" fill="none" fill-rule="evenodd">
        <g id="Hamburger-Menu" transform="translate(-181.000000, -107.000000)" fill="#A20000" stroke="#A20000">
            <g id="Go-to-home" transform="translate(179.000000, 106.000000)">
                <g id="Icon-Sign-In-Out" transform="translate(3.000000, 2.000000)">
                    <g id="Icon-Sign-Out">
                        <g id="Group-3">
                            <path d="M1.25,5.5 C0.8365,5.5 0.5,5.8365 0.5,6.25 L0.5,10.75 C0.5,11.1635 0.8365,11.5 1.25,11.5 L7.25,11.5 C7.6635,11.5 8,11.1635 8,10.75 L8,6.25 C8,5.8365 7.6635,5.5 7.25,5.5 L1.25,5.5 Z M7.25,12 L1.25,12 C0.5605,12 0,11.4395 0,10.75 L0,6.25 C0,5.5605 0.5605,5 1.25,5 L7.25,5 C7.9395,5 8.5,5.5605 8.5,6.25 L8.5,10.75 C8.5,11.4395 7.9395,12 7.25,12 Z" id="Fill-2670" stroke-width="0.5"></path>
                            <path d="M7.25,5.5 L1.25,5.5 C1.112,5.5 1,5.388 1,5.25 L1,3.25 C1,1.458 2.458,0 4.25,0 C6.042,0 7.5,1.458 7.5,3.25 C7.5,3.388 7.388,3.5 7.25,3.5 C7.112,3.5 7,3.388 7,3.25 C7,1.734 5.766,0.5 4.25,0.5 C2.734,0.5 1.5,1.734 1.5,3.25 L1.5,5 L7.25,5 C7.388,5 7.5,5.112 7.5,5.25 C7.5,5.388 7.388,5.5 7.25,5.5" id="Fill-2671" stroke-width="0.5"></path>
                            <path d="M4.25,10.5 C4.112,10.5 4,10.388 4,10.25 L4,8.75 C4,8.612 4.112,8.5 4.25,8.5 C4.388,8.5 4.5,8.612 4.5,8.75 L4.5,10.25 C4.5,10.388 4.388,10.5 4.25,10.5" id="Fill-2672" stroke-width="0.5"></path>
                            <path d="M4.25,7 C3.8365,7 3.5,7.3365 3.5,7.75 C3.5,8.1635 3.8365,8.5 4.25,8.5 C4.6635,8.5 5,8.1635 5,7.75 C5,7.3365 4.6635,7 4.25,7 M4.25,9 C3.5605,9 3,8.4395 3,7.75 C3,7.0605 3.5605,6.5 4.25,6.5 C4.9395,6.5 5.5,7.0605 5.5,7.75 C5.5,8.4395 4.9395,9 4.25,9" id="Fill-2673" stroke-width="0.5"></path>
                        </g>
                    </g>
                </g>
            </g>
        </g>
    </g>
</svg>