<?xml version="1.0" encoding="UTF-8"?>
<svg width="12px" height="16px" viewBox="0 0 12 16" version="1.1" xmlns="http://www.w3.org/2000/svg" xmlns:xlink="http://www.w3.org/1999/xlink">
    <!-- Generator: Sketch 51.2 (57519) - http://www.bohemiancoding.com/sketch -->
    <title>placeholder</title>
    <desc>Created with Sketch.</desc>
    <defs></defs>
    <g id="Mobile---Master-Registration" stroke="none" stroke-width="1" fill="none" fill-rule="evenodd">
        <g id="Hamburger-Menu" transform="translate(-20.000000, -20.000000)" fill="#A20000" fill-rule="nonzero">
            <g id="Store-Title" transform="translate(20.000000, 20.000000)">
                <g id="placeholder">
                    <path d="M5.92592593,16 L1.27746222,9.9441497 C0.441380186,8.84885873 0,7.53411474 0,6.14007814 C0,2.75451367 2.65844239,0 5.92592593,0 C9.19340946,0 11.8518519,2.75451367 11.8518519,6.14007814 C11.8518519,7.53411474 11.4104717,8.84885873 10.5756598,9.94283364 L5.92592593,16 Z M5.92592593,8.6991569 C7.32659355,8.6991569 8.46624355,7.51832202 8.46624355,6.06703681 C8.46624355,4.61542258 7.32659355,3.43491672 5.92592593,3.43491672 C4.5252583,3.43491672 3.38560831,4.61542258 3.38560831,6.06703681 C3.38560831,7.51832202 4.5252583,8.6991569 5.92592593,8.6991569 Z" id="Combined-Shape"></path>
                </g>
            </g>
        </g>
    </g>
</svg>