<?xml version="1.0" encoding="UTF-8"?>
<svg width="44px" height="44px" viewBox="0 0 44 44" version="1.1" xmlns="http://www.w3.org/2000/svg" xmlns:xlink="http://www.w3.org/1999/xlink">
    <!-- Generator: Sketch 51.2 (57519) - http://www.bohemiancoding.com/sketch -->
    <title>New CTA Profile</title>
    <desc>Created with Sketch.</desc>
    <defs>
        <polygon id="path-1" points="0 0 24 0 24 24 0 24"></polygon>
    </defs>
    <g id="Symbols" stroke="none" stroke-width="1" fill="none" fill-rule="evenodd">
        <g id="Dashbaord-Header" transform="translate(0.000000, -18.000000)">
            <g id="Group" transform="translate(0.000000, 18.000000)">
                <g id="Group-7">
                    <g id="New-CTA-Profile">
                        <circle id="Oval-4" fill="#550505" cx="22" cy="22" r="22"></circle>
                        <g id="Group-3" stroke-width="1" transform="translate(10.000000, 10.000000)">
                            <mask id="mask-2" fill="white">
                                <use xlink:href="#path-1"></use>
                            </mask>
                            <g id="Clip-2"></g>
                            <path d="M19.3504,20.4296 L16.3808,19.1408 C15.368,18.7264 14.9192,17.1624 14.8328,16.572 C15.5256,15.9544 16.176,15.0168 16.176,14.1784 C16.176,13.7408 16.3448,13.6704 16.3248,13.6784 C16.4496,13.6464 16.5512,13.5592 16.6,13.4408 C16.6496,13.3184 17.0824,12.2352 17.0824,11.5112 C17.0824,11.4784 17.0784,11.4448 17.0696,11.4128 C17.0216,11.2192 16.8824,10.9344 16.6296,10.7784 L16.6296,8.4 C16.6296,6.9712 16.184,6.3968 15.716,6.0624 C15.64,5.3936 14.9096,4 12.1496,4 C9.3736,4 7.6696,6.5624 7.6696,8.4 L7.6696,10.7784 C7.4168,10.9344 7.2776,11.2192 7.2296,11.4128 C7.2208,11.4448 7.2168,11.4784 7.2168,11.5112 C7.2168,12.2352 7.6496,13.3184 7.7,13.4408 C7.748,13.5592 7.8248,13.64 7.9496,13.6704 C7.9568,13.6736 8.1232,13.7488 8.1232,14.1784 C8.1232,15.0168 8.7736,15.9544 9.4672,16.572 C9.38,17.1624 8.932,18.7264 7.9232,19.1392 L4.6528,20.428 C4.6512,20.428 4.6512,20.4296 4.6496,20.4304 C2.296,18.376 0.8,15.3624 0.8,12 C0.8,5.824 5.824,0.8 12,0.8 C18.1752,0.8 23.2,5.824 23.2,12 C23.2,15.3616 21.7032,18.3752 19.3504,20.4296 M12,0 C5.3824,0 0,5.3824 0,12 C0,18.6168 5.3824,24 12,24 C18.6168,24 24,18.6168 24,12 C24,5.3824 18.6168,0 12,0" id="Fill-1" fill="#FFFFFF" mask="url(#mask-2)"></path>
                        </g>
                    </g>
                </g>
            </g>
        </g>
    </g>
</svg>