<?xml version="1.0" encoding="UTF-8"?>
<svg width="13px" height="14px" viewBox="0 0 13 14" version="1.1" xmlns="http://www.w3.org/2000/svg" xmlns:xlink="http://www.w3.org/1999/xlink">
    <!-- Generator: Sketch 51.2 (57519) - http://www.bohemiancoding.com/sketch -->
    <title>Icon Home</title>
    <desc>Created with Sketch.</desc>
    <defs></defs>
    <g id="Mobile---Master-Registration" stroke="none" stroke-width="1" fill="none" fill-rule="evenodd">
        <g id="Hamburger-Menu" transform="translate(-20.000000, -107.000000)" fill="#A20000" stroke="#A20000" stroke-width="0.5">
            <g id="Go-to-home" transform="translate(20.000000, 106.000000)">
                <g id="Icon-Home" transform="translate(1.000000, 2.000000)">
                    <path d="M7.50208493,11.4998593 L9.50264759,11.4998593 L9.50264759,6.24838236 C9.50264759,6.11034353 9.6146791,5.99831203 9.75271792,5.99831203 L10.68448,5.99831203 L5.75159261,0.616798475 L0.818705231,5.99831203 L1.75046729,5.99831203 C1.88850611,5.99831203 2.00053762,6.11034353 2.00053762,6.24838236 L2.00053762,11.4998593 L4.00110028,11.4998593 L4.00110028,7.74880435 C4.00110028,7.61076553 4.11313179,7.49873402 4.25117061,7.49873402 L7.2520146,7.49873402 C7.39005342,7.49873402 7.50208493,7.61076553 7.50208493,7.74880435 L7.50208493,11.4998593 Z M9.75271792,12 L7.2520146,12 C7.11397578,12 7.00194427,11.8879685 7.00194427,11.7499297 L7.00194427,7.99887468 L4.50124094,7.99887468 L4.50124094,11.7499297 C4.50124094,11.8879685 4.38920944,12 4.25117061,12 L1.75046729,12 C1.61242847,12 1.50039696,11.8879685 1.50039696,11.7499297 L1.50039696,6.49845269 L0.250045296,6.49845269 C0.151017444,6.49845269 0.0609921246,6.43993623 0.0209808715,6.34891063 C-0.018530241,6.25838517 -0.00152545844,6.15285549 0.0659935313,6.07933481 L5.56754084,0.0776468382 C5.66206743,-0.0258822794 5.84111778,-0.0258822794 5.93564437,0.0776468382 L11.4371917,6.07933481 C11.5047107,6.15285549 11.5217155,6.25838517 11.4822043,6.34891063 C11.4421931,6.43993623 11.3521678,6.49845269 11.2531399,6.49845269 L10.0027883,6.49845269 L10.0027883,11.7499297 C10.0027883,11.8879685 9.89075675,12 9.75271792,12 Z" id="Fill-2870"></path>
                </g>
            </g>
        </g>
    </g>
</svg>