<?xml version="1.0" encoding="UTF-8"?>
<svg width="22px" height="22px" viewBox="0 0 22 22" version="1.1" xmlns="http://www.w3.org/2000/svg" xmlns:xlink="http://www.w3.org/1999/xlink">
    <!-- Generator: Sketch 51.2 (57519) - http://www.bohemiancoding.com/sketch -->
    <title>Icon_Alert</title>
    <desc>Created with Sketch.</desc>
    <defs></defs>
    <g id="Mobile---Returning-Customer" stroke="none" stroke-width="1" fill="none" fill-rule="evenodd">
        <g id="Added-Note" transform="translate(-299.000000, -224.000000)">
            <g id="Icon_Alert" transform="translate(310.000000, 235.000000) scale(-1, 1) translate(-310.000000, -235.000000) translate(299.000000, 224.000000)">
                <g id="Group-5">
                    <path d="M20.0275779,17.2873609 L21.2903226,22 L16.3225806,20.6690563 L16.413219,20.5784141 C14.815098,21.4834276 12.9680142,22 11.000232,22 C4.92467897,22 0,17.0764038 0,10.9995617 C0,4.92406022 4.92467897,0 11.000232,0 C17.0752695,0 22,4.92406022 22,10.9995617 C22,13.3378455 21.2708507,15.5053794 20.0275779,17.2873609 Z" id="Combined-Shape" fill="#FF9F00" fill-rule="nonzero"></path>
                    <path d="M11,16.875 C10.1715729,16.875 9.5,16.2034271 9.5,15.375 C9.5,14.5465729 10.1715729,13.875 11,13.875 C11.8284271,13.875 12.5,14.5465729 12.5,15.375 C12.5,16.2034271 11.8284271,16.875 11,16.875 Z M11.000001,13.125 C10.5353314,13.125 10.1485366,12.7933021 10.1094008,12.3618753 L9.50527568,5.63948795 C9.47010801,5.24960718 9.61191955,4.86418603 9.89601384,4.57632171 C10.1797361,4.2888271 10.5803698,4.125 11.000001,4.125 C11.4196322,4.125 11.8202659,4.2888271 12.1039634,4.57632171 C12.3880081,4.86418603 12.529894,5.24960718 12.4947264,5.63948795 L11.8906013,12.3618753 C11.8514655,12.7933021 11.4646707,13.125 11.000001,13.125 Z" id="Oval-6" fill="#FFFFFF"></path>
                </g>
            </g>
        </g>
    </g>
</svg>