<?xml version="1.0" encoding="UTF-8"?>
<svg width="17px" height="17px" viewBox="0 0 17 17" version="1.1" xmlns="http://www.w3.org/2000/svg" xmlns:xlink="http://www.w3.org/1999/xlink">
    <!-- Generator: Sketch 51.2 (57519) - http://www.bohemiancoding.com/sketch -->
    <title>Shape</title>
    <desc>Created with Sketch.</desc>
    <defs></defs>
    <g id="Mobile---Master-Registration" stroke="none" stroke-width="1" fill="none" fill-rule="evenodd">
        <g id="Marketing" transform="translate(-20.000000, -188.000000)" fill="#A20000" fill-rule="nonzero">
            <g id="Group-4" transform="translate(20.000000, 163.000000)">
                <path d="M8.38645031,25.0007725 C3.69238267,25.0635983 -0.0616888294,28.9201821 0.000768158501,33.6143823 C0.0635947144,38.3065499 3.91985176,42.0616884 8.61373462,41.9992321 C13.3068783,41.9360367 17.061689,38.0794529 16.999232,33.3856223 C16.9364054,28.6930851 13.0799636,24.9381314 8.38645031,25.0007725 Z M8.36131969,38.6738964 L8.31438456,38.6731573 C7.5915096,38.6517226 7.08187536,38.119181 7.10238638,37.4070315 C7.12252784,36.7070775 7.6445426,36.1989272 8.34358043,36.1989272 L8.38552639,36.1996663 C9.12854281,36.2216554 9.63244874,36.7488382 9.61156815,37.4814986 C9.59087235,38.1834852 9.07698808,38.6738964 8.36131969,38.6738964 Z M11.4019402,32.6391033 C11.2319389,32.8806132 10.8581209,33.1805143 10.3871066,33.5474912 L9.8684179,33.9055986 C9.58366577,34.1269674 9.41181666,34.3352166 9.34732705,34.5401398 C9.29651145,34.7014544 9.27156562,34.744139 9.2671308,35.0723117 L9.26639166,35.1556484 L7.28587688,35.1556484 L7.29160519,34.9880512 C7.31581189,34.2991841 7.33281201,33.8939574 7.61830328,33.5591325 C8.06621966,33.0332431 9.05425965,32.3970389 9.09620561,32.3700608 C9.23775015,32.2634416 9.3571206,32.1420399 9.4460017,32.0123229 C9.65388369,31.7257262 9.74590611,31.5001074 9.74590611,31.2783691 C9.74590611,30.9707072 9.65462282,30.686143 9.47408887,30.432807 C9.3005767,30.1883405 8.97092207,30.0645366 8.49417938,30.0645366 C8.02131715,30.0645366 7.69757561,30.2145795 7.50392199,30.5224262 C7.30472485,30.8389577 7.20401757,31.1713804 7.20401757,31.5110095 L7.20401757,31.5954549 L5.16196972,31.5954549 L5.1656654,31.5073139 C5.21832884,30.256525 5.66476696,29.3558979 6.49204487,28.830378 C7.01184223,28.495738 7.65858619,28.3261082 8.41324399,28.3261082 C9.40109919,28.3261082 10.2350293,28.5661399 10.8915668,29.0395512 C11.5567892,29.5192451 11.8942048,30.2376772 11.8942048,31.1748912 C11.8942048,31.6991176 11.7286383,32.1915614 11.4019402,32.6391033 Z" id="Shape"></path>
            </g>
        </g>
    </g>
</svg>