<?xml version="1.0" encoding="UTF-8"?>
<svg width="15px" height="14px" viewBox="0 0 15 14" version="1.1" xmlns="http://www.w3.org/2000/svg" xmlns:xlink="http://www.w3.org/1999/xlink">
    <!-- Generator: Sketch 51.2 (57519) - http://www.bohemiancoding.com/sketch -->
    <title>warning</title>
    <desc>Created with Sketch.</desc>
    <defs></defs>
    <g id="Mobile---Master-Registration" stroke="none" stroke-width="1" fill="none" fill-rule="evenodd">
        <g id="Invalid-ID" transform="translate(-20.000000, -307.000000)">
            <g id="Group-2" transform="translate(20.000000, 152.000000)">
                <g id="Group-8" transform="translate(0.000000, 63.000000)">
                    <g id="Invalid" transform="translate(0.000000, 92.000000)">
                        <g id="warning">
                            <rect id="Rectangle-2" fill="#FFFFFF" x="5.33333333" y="3" width="4.66666667" height="10"></rect>
                            <path d="M14.6883429,10.7126782 L9.38956125,1.0653489 C8.53822298,-0.354173104 6.46291934,-0.356059184 5.61043849,1.0653489 L0.31192054,10.7126782 C-0.558372811,12.16319 0.495289761,14 2.20104246,14 L12.7987815,14 C14.5030987,14 15.5586362,12.1646698 14.6883429,10.7126782 Z M7.49999987,11.7762443 C7.01548794,11.7762443 6.62109324,11.3856225 6.62109324,10.9057457 C6.62109324,10.4258688 7.01548794,10.0352471 7.49999987,10.0352471 C7.9845118,10.0352471 8.37890651,10.4258688 8.37890651,10.9057457 C8.37890651,11.3856225 7.9845118,11.7762443 7.49999987,11.7762443 Z M8.37890651,8.36978571 C8.37890651,8.81224782 7.9845118,9.17241379 7.49999987,9.17241379 C7.01548794,9.17241379 6.62109324,8.81224782 6.62109324,8.36978571 L6.62109324,4.35664532 C6.62109324,3.91418322 7.01548794,3.55401724 7.49999987,3.55401724 C7.9845118,3.55401724 8.37890651,3.91418322 8.37890651,4.35664532 L8.37890651,8.36978571 Z" id="Shape" fill="#A20000" fill-rule="nonzero"></path>
                        </g>
                    </g>
                </g>
            </g>
        </g>
    </g>
</svg>