<?xml version="1.0" encoding="UTF-8"?>
<svg width="14px" height="13px" viewBox="0 0 14 13" version="1.1" xmlns="http://www.w3.org/2000/svg" xmlns:xlink="http://www.w3.org/1999/xlink">
    <!-- Generator: Sketch 51.2 (57519) - http://www.bohemiancoding.com/sketch -->
    <title>Store</title>
    <desc>Created with Sketch.</desc>
    <defs></defs>
    <g id="Mobile---Returning-Customer" stroke="none" stroke-width="1" fill="none" fill-rule="evenodd">
        <g id="Store-History" transform="translate(-21.000000, -290.000000)" fill="#A20000" fill-rule="nonzero">
            <g id="Group-3" transform="translate(20.000000, 289.000000)">
                <g id="Group-2" transform="translate(1.000000, 0.000000)">
                    <g id="Store" transform="translate(0.000000, 1.000000)">
                        <path d="M0,0 L0,12.7111979 L14,12.7111979 L14,0 L0,0 Z M5.0123901,11.6721354 L4.02924193,11.6721354 L4.02924193,7.31960651 L5.0123901,7.31960651 L5.0123901,11.6721354 Z M12.9609375,11.6721354 L6.0514526,11.6721354 L6.0514526,6.28054401 L2.99021406,6.28054401 L2.99021406,11.6721354 L1.0390625,11.6721354 L1.0390625,4.73351849 L12.9609375,4.73351849 L12.9609375,11.6721354 Z M12.9609375,3.69445599 L1.0390625,3.69445599 L1.0390625,1.0390625 L2.03195599,1.0390625 L12.9609375,1.0390625 L12.9609375,3.69445599 Z" id="Shape"></path>
                        <path d="M7.46666667,10.2846154 L12.1333333,10.2846154 L12.1333333,6.53333333 L7.46666667,6.53333333 L7.46666667,10.2846154 Z M8.24733726,7.54719335 L11.3526627,7.54719335 L11.3526627,9.27075537 L8.24733726,9.27075537 L8.24733726,7.54719335 Z" id="Shape"></path>
                    </g>
                </g>
            </g>
        </g>
    </g>
</svg>