<?xml version="1.0" encoding="UTF-8"?>
<svg width="14px" height="14px" viewBox="0 0 14 14" version="1.1" xmlns="http://www.w3.org/2000/svg" xmlns:xlink="http://www.w3.org/1999/xlink">
    <!-- Generator: Sketch 51.2 (57519) - http://www.bohemiancoding.com/sketch -->
    <title>closed-envelope-circle</title>
    <desc>Created with Sketch.</desc>
    <defs></defs>
    <g id="Mobile---Returning-Customer" stroke="none" stroke-width="1" fill="none" fill-rule="evenodd">
        <g id="Dashboard-Home" transform="translate(-152.000000, -437.000000)">
            <g id="Group-6" transform="translate(20.000000, 332.000000)">
                <g id="Group-5" transform="translate(132.000000, 56.000000)">
                    <g id="Email" transform="translate(0.000000, 47.000000)">
                        <g id="closed-envelope-circle" transform="translate(0.000000, 2.000000)">
                            <circle id="Oval-3" fill="#FFFFFF" cx="7.56" cy="6.44" r="5.32"></circle>
                            <path d="M7,14 C6.356,14 5.73533333,13.916 5.138,13.748 C4.54066667,13.5799314 3.983,13.3443333 3.465,13.041 C2.947,12.7376667 2.47566667,12.3736667 2.051,11.949 C1.62633333,11.5243791 1.26233333,11.053 0.959,10.535 C0.655666667,10.0169542 0.42,9.45933333 0.252,8.86197712 C0.084,8.26466667 0,7.644 0,7 C0,6.356 0.084,5.73533333 0.252,5.138 C0.42,4.54066667 0.655666667,3.983 0.959,3.465 C1.26233333,2.947 1.62633333,2.47566667 2.051,2.051 C2.47566667,1.62633333 2.947,1.26233333 3.465,0.959 C3.983,0.655666667 4.54066667,0.42 5.138,0.252 C5.73533333,0.084 6.356,0 7,0 C7.96133333,0 8.869,0.184333333 9.723,0.553 C10.577,0.921666667 11.319,1.421 11.949,2.051 C12.579,2.681 13.0783333,3.423 13.447,4.277 C13.8156667,5.131 14,6.03866667 14,7 C14,7.644 13.916,8.26466667 13.748,8.862 C13.5799314,9.45926471 13.3443333,10.0169314 13.041,10.535 C12.7376667,11.053 12.3736667,11.5243333 11.949,11.949 C11.5243791,12.3736667 11.053,12.7377353 10.535,13.041 C10.0169542,13.3443333 9.45933333,13.58 8.86195425,13.748 C8.26466667,13.916 7.644,14 7,14 Z M10.374,4.116 L3.738,4.116 C3.67266667,4.116 3.61666667,4.137 3.57,4.179 C3.52333333,4.221 3.5,4.27933333 3.5,4.354 L3.5,5.096 C3.5,5.13333333 3.514,5.152 3.542,5.152 L7.028,7.14 L7.05606863,7.154 C7.07466667,7.154 7.08873529,7.14933333 7.09806863,7.14 L10.4720686,5.152 C10.4906667,5.14266667 10.5047353,5.138 10.5140686,5.138 C10.5233333,5.138 10.537402,5.13333333 10.5560686,5.124 C10.593402,5.124 10.6120686,5.10533333 10.6120686,5.068 L10.6120686,4.354 C10.6120686,4.27933333 10.5887124,4.221 10.542,4.179 C10.4952876,4.137 10.4393333,4.116 10.374,4.116 Z M5.614,7.098 C5.62333333,7.08866667 5.628,7.07464379 5.628,7.056 C5.628,7.02793137 5.61866667,7.014 5.6,7.014 L3.598,5.86597712 C3.57,5.85664379 3.54666667,5.85664379 3.528,5.86597712 C3.50933333,5.86597712 3.5,5.87997712 3.5,5.90797712 L3.5,8.91797712 C3.5,8.94604575 3.514,8.96464379 3.542,8.97397712 L3.57,8.97397712 C3.58866667,8.97397712 3.598,8.96931046 3.598,8.95997712 L5.614,7.098 Z M8.05,7.322 C8.04066667,7.29393137 8.01726471,7.28933333 7.97993137,7.308 L7.20993137,7.756 C7.11659804,7.812 7.01866667,7.812 6.91593137,7.756 L6.24393137,7.37806863 C6.21593137,7.35940196 6.19259804,7.35940196 6.17393137,7.37806863 L3.61193137,9.75806863 C3.60259804,9.76733333 3.59793137,9.78606863 3.59793137,9.814 C3.59793137,9.82333333 3.60726471,9.83735621 3.62593137,9.856 C3.68193137,9.87466667 3.71926471,9.88406863 3.73793137,9.88406863 L10.3039542,9.88406863 C10.3226209,9.88406863 10.3413562,9.87473529 10.3599542,9.856 C10.3599542,9.81866667 10.3552876,9.79540196 10.3459542,9.786 L8.05,7.322 Z M10.57,5.81 L10.5140686,5.81 L8.61006863,6.944 C8.59147059,6.944 8.58206863,6.958 8.58206863,6.986 C8.57273529,6.99533333 8.57740196,7.00933333 8.596,7.02793137 L10.5,9.086 C10.5186667,9.10466667 10.5326667,9.11406863 10.542,9.11406863 L10.57,9.11406863 C10.5980686,9.086 10.6120686,9.06740196 10.6120686,9.05806863 L10.6120686,5.86602288 C10.612,5.84733333 10.598,5.82866667 10.57,5.81 Z" id="Shape" fill="#A20000" fill-rule="nonzero"></path>
                        </g>
                    </g>
                </g>
            </g>
        </g>
    </g>
</svg>