<?xml version="1.0" encoding="UTF-8"?>
<svg width="20px" height="20px" viewBox="0 0 20 20" version="1.1" xmlns="http://www.w3.org/2000/svg" xmlns:xlink="http://www.w3.org/1999/xlink">
    <!-- Generator: Sketch 51.2 (57519) - http://www.bohemiancoding.com/sketch -->
    <title>icon_search_white</title>
    <desc>Created with Sketch.</desc>
    <defs></defs>
    <g id="Symbols" stroke="none" stroke-width="1" fill="none" fill-rule="evenodd">
        <g id="Header" transform="translate(-315.000000, -1.000000)" fill="#FFFFFF">
            <g id="icon_search_white">
                <g transform="translate(315.000000, 1.000000)">
                    <g id="search">
                        <path d="M19.5497059,17.3722262 L15.9359804,13.7596805 C16.926634,12.3399503 17.5120588,10.6175024 17.5120588,8.7561633 C17.5120588,3.92026334 13.5918627,0 8.75604575,0 C3.92022876,0 0,3.92026334 0,8.7561633 C0,13.5920633 3.92019608,17.5123266 8.75601307,17.5123266 C10.6173203,17.5123266 12.3397386,16.9269244 13.7594444,15.9362211 L17.3719281,19.5487668 C17.9735948,20.1504111 18.9480392,20.1504111 19.5497059,19.5487668 C20.150098,18.9483316 20.150098,17.9739031 19.5497059,17.3722262 Z M8.75601307,15.0105517 C5.30238562,15.0105517 2.50173203,12.20985 2.50173203,8.7561633 C2.50173203,5.30247659 5.3024183,2.50177495 8.75601307,2.50177495 C12.2096405,2.50177495 15.0102941,5.30250928 15.0102941,8.7561633 C15.0102941,12.20985 12.2096405,15.0105517 8.75601307,15.0105517 Z" id="Shape" fill-rule="nonzero"></path>
                    </g>
                </g>
            </g>
        </g>
    </g>
</svg>