<?xml version="1.0" encoding="UTF-8"?>
<svg width="17px" height="17px" viewBox="0 0 17 17" version="1.1" xmlns="http://www.w3.org/2000/svg" xmlns:xlink="http://www.w3.org/1999/xlink">
    <!-- Generator: Sketch 51.2 (57519) - http://www.bohemiancoding.com/sketch -->
    <title>Group 10</title>
    <desc>Created with Sketch.</desc>
    <defs></defs>
    <g id="Mobile---Master-Registration" stroke="none" stroke-width="1" fill="none" fill-rule="evenodd">
        <g id="Medical-Medical-Card" transform="translate(-201.000000, -169.000000)">
            <g id="Group-8" transform="translate(201.000000, 169.000000)">
                <g id="Group-10">
                    <circle id="Oval-2" fill="#A20000" cx="8.5" cy="8.5" r="8.5"></circle>
                    <path d="M7.65,7.65 L7.65,5.1 C7.65,4.63055796 8.03055796,4.25 8.5,4.25 C8.96944204,4.25 9.35,4.63055796 9.35,5.1 L9.35,7.65 L11.9,7.65 C12.369442,7.65 12.75,8.03055796 12.75,8.5 C12.75,8.96944204 12.369442,9.35 11.9,9.35 L9.35,9.35 L9.35,11.9 C9.35,12.369442 8.96944204,12.75 8.5,12.75 C8.03055796,12.75 7.65,12.369442 7.65,11.9 L7.65,9.35 L5.1,9.35 C4.63055796,9.35 4.25,8.96944204 4.25,8.5 C4.25,8.03055796 4.63055796,7.65 5.1,7.65 L7.65,7.65 Z" id="Combined-Shape" fill="#FFFFFF"></path>
                </g>
            </g>
        </g>
    </g>
</svg>