<?xml version="1.0" encoding="UTF-8"?>
<svg width="13px" height="13px" viewBox="0 0 13 13" version="1.1" xmlns="http://www.w3.org/2000/svg" xmlns:xlink="http://www.w3.org/1999/xlink">
    <!-- Generator: Sketch 51.2 (57519) - http://www.bohemiancoding.com/sketch -->
    <title>Zoomin</title>
    <desc>Created with Sketch.</desc>
    <defs></defs>
    <g id="Mobile---Returning-Customer" stroke="none" stroke-width="1" fill="none" fill-rule="evenodd">
        <g id="ID" transform="translate(-252.000000, -440.000000)">
            <g id="Group-8" transform="translate(20.000000, 321.000000)">
                <g id="Group-9" transform="translate(232.000000, 119.000000)">
                    <g id="Zoomin">
                        <g id="search">
                            <circle id="Oval" fill="#FFFFFF" cx="5.85" cy="5.85" r="4.55"></circle>
                            <path d="M12.7073088,11.291947 L10.3583873,8.94379234 C11.0023121,8.02096768 11.3828382,6.90137658 11.3828382,5.69150615 C11.3828382,2.54817117 8.83471078,0 5.69142974,0 C2.54814869,0 0,2.54817117 0,5.69150615 C0,8.83484112 2.54812745,11.3830123 5.6914085,11.3830123 C6.90125817,11.3830123 8.02083007,11.0025009 8.94363889,10.3585437 L11.2917533,12.7066984 C11.6828366,13.0977672 12.3162255,13.0977672 12.7073088,12.7066984 C13.0975637,12.3164156 13.0975637,11.683037 12.7073088,11.291947 Z M5.6914085,9.75685857 C3.44655065,9.75685857 1.62612582,7.9364025 1.62612582,5.69150615 C1.62612582,3.44660979 3.4465719,1.62615372 5.6914085,1.62615372 C7.93626634,1.62615372 9.75669118,3.44663103 9.75669118,5.69150615 C9.75669118,7.9364025 7.93626634,9.75685857 5.6914085,9.75685857 Z" id="Shape" fill="#A20000" fill-rule="nonzero"></path>
                        </g>
                        <path d="M4.99107143,4.99107143 L4.99107143,3.94642857 C4.99107143,3.56180169 5.30287312,3.25 5.6875,3.25 C6.07212688,3.25 6.38392857,3.56180169 6.38392857,3.94642857 L6.38392857,4.99107143 L7.42857143,4.99107143 C7.81319831,4.99107143 8.125,5.30287312 8.125,5.6875 C8.125,6.07212688 7.81319831,6.38392857 7.42857143,6.38392857 L6.38392857,6.38392857 L6.38392857,7.42857143 C6.38392857,7.81319831 6.07212688,8.125 5.6875,8.125 C5.30287312,8.125 4.99107143,7.81319831 4.99107143,7.42857143 L4.99107143,6.38392857 L3.94642857,6.38392857 C3.56180169,6.38392857 3.25,6.07212688 3.25,5.6875 C3.25,5.30287312 3.56180169,4.99107143 3.94642857,4.99107143 L4.99107143,4.99107143 Z" id="Combined-Shape" fill="#A20000"></path>
                    </g>
                </g>
            </g>
        </g>
    </g>
</svg>