<?xml version="1.0" encoding="UTF-8"?>
<svg width="30px" height="22px" viewBox="0 0 30 22" version="1.1" xmlns="http://www.w3.org/2000/svg" xmlns:xlink="http://www.w3.org/1999/xlink">
    <!-- Generator: Sketch 51.2 (57519) - http://www.bohemiancoding.com/sketch -->
    <title>Delivery Truck</title>
    <desc>Created with Sketch.</desc>
    <defs>
        <polygon id="path-1" points="0.0347012424 0.0157961187 2.47396894 0.0157961187 2.47396894 4.14076991 0.0347012424 4.14076991"></polygon>
        <polygon id="path-3" points="0 0.0157961187 2.43930422 0.0157961187 2.43930422 4.14076991 0 4.14076991"></polygon>
        <polygon id="path-5" points="0.0206698361 0.0555016393 0.520669836 0.0555016393 0.520669836 0.555501639 0.0206698361 0.555501639"></polygon>
    </defs>
    <g id="Mobile---Master-Registration" stroke="none" stroke-width="1" fill="none" fill-rule="evenodd">
        <g id="CS-Que-History" transform="translate(-296.000000, -150.000000)">
            <g id="Group-5" transform="translate(20.000000, 150.000000)">
                <g id="Delivery-Truck" transform="translate(277.000000, 1.000000)">
                    <g id="Group-3">
                        <g id="Group-2" fill="#222222" stroke="#222222" stroke-width="0.5">
                            <path d="M9.5,16 C8.673,16 8,16.673 8,17.5 C8,18.327 8.673,19 9.5,19 C10.327,19 11,18.327 11,17.5 C11,16.673 10.327,16 9.5,16 M9.5,20 C8.121,20 7,18.878 7,17.5 C7,16.122 8.121,15 9.5,15 C10.879,15 12,16.122 12,17.5 C12,18.878 10.879,20 9.5,20" id="Fill-8051"></path>
                            <path d="M23.5,16 C22.673,16 22,16.673 22,17.5 C22,18.327 22.673,19 23.5,19 C24.327,19 25,18.327 25,17.5 C25,16.673 24.327,16 23.5,16 M23.5,20 C22.121,20 21,18.878 21,17.5 C21,16.122 22.121,15 23.5,15 C24.879,15 26,16.122 26,17.5 C26,18.878 24.879,20 23.5,20" id="Fill-8053"></path>
                            <path d="M25.5,18 C25.224,18 25,17.776 25,17.5 C25,17.224 25.224,17 25.5,17 L26.5,17 C26.775,17 27,16.776 27,16.5 L27,11.586 L25.003,5.995 C24.79,5.4 24.223,5 23.591,5 L20,5 L20,13.5 C20,13.776 19.776,14 19.5,14 L1.00366211,14 L1.00366211,16.5 C1.00366211,16.776 1.22866211,17 1.50366211,17 L7.5,17 C7.776,17 8,17.224 8,17.5 C8,17.776 7.776,18 7.5,18 L1.50366211,18 C0.676662109,18 0.00366210938,17.327 0.00366210938,16.5 L0.00366210938,13.5 C0.00366210938,13.224 0.227662109,13 0.503662109,13 L19,13 L19,4.5 C19,4.224 19.224,4 19.5,4 L23.591,4 C24.645,4 25.59,4.667 25.944,5.659 L27.971,11.332 C27.99,11.386 28,11.443 28,11.5 L28,16.5 C28,17.327 27.327,18 26.5,18 L25.5,18 Z" id="Fill-8055"></path>
                            <path d="M21.5,18 L11.5,18 C11.224,18 11,17.776 11,17.5 C11,17.224 11.224,17 11.5,17 L21.5,17 C21.776,17 22,17.224 22,17.5 C22,17.776 21.776,18 21.5,18" id="Fill-8057"></path>
                            <path d="M0.5,14 C0.224,14 0,13.776 0,13.5 L0,2.5 C0,1.122 1.121,0 2.5,0 L17.5,0 C18.879,0 20,1.122 20,2.5 L20,4.5 C20,4.776 19.776,5 19.5,5 C19.224,5 19,4.776 19,4.5 L19,2.5 C19,1.673 18.327,1 17.5,1 L2.5,1 C1.673,1 1,1.673 1,2.5 L1,13.5 C1,13.776 4.776,14 4.5,14" id="Fill-8059"></path>
                            <path d="M25,11 L21.5,11 C21.224,11 21,10.776 21,10.5 L21,6.5 C21,6.224 21.224,6 21.5,6 C21.776,6 22,6.224 22,6.5 L22,10 L25,10 C25.276,10 25.5,10.224 25.5,10.5 C25.5,10.776 25.276,11 25,11" id="Fill-8061"></path>
                        </g>
                        <g id="Group" transform="translate(3.000000, 5.000000)">
                            <path d="M6.09854818,2.66754901 L6.09854818,2.45567101 C6.09854818,1.89600448 5.99833869,1.58921281 5.82147695,1.58921281 C5.64484347,1.58921281 5.56266713,1.89600448 5.56266713,2.45567101 L5.56266713,2.66754901 C5.56266713,3.23347007 5.64484347,3.53432678 5.82147695,3.53432678 C5.99833869,3.53432678 6.09854818,3.23347007 6.09854818,2.66754901 M4.86713572,2.70306745 L4.86713572,2.42015257 C4.86713572,1.2948389 5.16160094,0.92340184 5.53851642,0.92340184 C5.84526243,0.92340184 5.98697097,1.17668758 6.0930241,1.36532794 L6.0930241,0.0158098148 L6.78841855,0.0158098148 L6.78841855,4.14078818 L6.0930241,4.14078818 L6.0930241,3.7457939 C5.99281462,3.93484514 5.84526243,4.2000921 5.53851642,4.2000921 C5.16160094,4.2000921 4.86713572,3.84020538 4.86713572,2.70306745" id="Fill-3" fill="#A20000"></path>
                            <path d="M3.93479948,2.19527702 C3.90667691,1.94116951 3.91133357,1.56881938 3.64909974,1.56881938 C3.43352381,1.56881938 3.38001788,1.98622954 3.3679197,2.19527702 L3.93479948,2.19527702 Z M3.3679197,2.79059895 C3.3679197,3.06365266 3.40722738,3.57766567 3.68000717,3.57949181 C3.84358374,3.58099838 3.87362376,3.3453349 3.92055558,3.09118174 L4.60928462,3.09305353 C4.56778557,3.45421855 4.33773747,4.19859923 3.66297841,4.19859923 C2.93717871,4.19859923 2.60902119,3.42326546 2.60902119,2.56109869 C2.60902119,1.68076182 2.95544012,0.936061561 3.65366509,0.936061561 C4.38444102,0.936061561 4.63736154,1.7673209 4.63736154,2.57999925 L4.63736154,2.79059895 L3.3679197,2.79059895 Z" id="Fill-8" fill="#A20000"></path>
                            <g id="Group-12" transform="translate(6.939335, 0.000000)">
                                <mask id="mask-2" fill="white">
                                    <use xlink:href="#path-1"></use>
                                </mask>
                                <g id="Clip-11"></g>
                                <polygon id="Fill-10" fill="#A20000" mask="url(#mask-2)" points="0.0347012424 0.0157915534 0.747763608 0.0157915534 1.25460901 1.52427524 1.7611805 0.0157915534 2.47396894 0.0157915534 2.47396894 4.14076991 1.78469206 4.14076991 1.78469206 1.64795063 1.2602244 3.20966633 1.24876536 3.20966633 0.724023777 1.64795063 0.724023777 4.14076991 0.0347012424 4.14076991"></polygon>
                            </g>
                            <path d="M10.9087996,2.19527702 C10.880677,1.94116951 10.8852424,1.56881938 10.6230542,1.56881938 C10.4075239,1.56881938 10.354018,1.98622954 10.3419655,2.19527702 L10.9087996,2.19527702 Z M10.3419655,2.79059895 C10.3419655,3.06365266 10.3815927,3.57766567 10.6542812,3.57949181 C10.8176295,3.58099838 10.8478522,3.3453349 10.8948753,3.09118174 L11.5832847,3.09305353 C11.5417857,3.45421855 11.311418,4.19859923 10.6372981,4.19859923 C9.91085926,4.19859923 9.58311262,3.42326546 9.58311262,2.56109869 C9.58311262,1.68076182 9.92975982,0.936061561 10.6277109,0.936061561 C11.3584868,0.936061561 11.6111334,1.7673209 11.6111334,2.57999925 L11.6111334,2.79059895 L10.3419655,2.79059895 Z" id="Fill-13" fill="#A20000"></path>
                            <path d="M11.7944962,0.982472932 L12.4899363,0.982472932 L12.4899363,1.35947972 C12.6136117,1.11765301 12.7729425,0.923397274 13.0496941,0.923397274 C13.4498473,0.923397274 13.6567034,1.26511389 13.6567034,1.74812816 L13.6567034,4.14078361 L12.9615372,4.14078361 L12.9615372,1.9074133 C12.9615372,1.67763912 12.873152,1.54775485 12.7314434,1.54775485 C12.5901458,1.54775485 12.4899363,1.67763912 12.4899363,1.9074133 L12.4899363,4.14078361 L11.7944962,4.14078361 L11.7944962,0.982472932 Z" id="Fill-1" fill="#A20000"></path>
                            <g id="Group-7">
                                <mask id="mask-4" fill="white">
                                    <use xlink:href="#path-3"></use>
                                </mask>
                                <g id="Clip-6"></g>
                                <polygon id="Fill-5" fill="#A20000" mask="url(#mask-4)" points="-9.13070447e-06 0.0157915534 0.713144542 0.0157915534 1.21967037 1.52427524 1.72651578 0.0157915534 2.43930422 0.0157915534 2.43930422 4.14076991 1.75025561 4.14076991 1.75025561 1.64795063 1.22551402 3.20966633 1.21378107 3.20966633 0.68926775 1.64795063 0.68926775 4.14076991 -9.13070447e-06 4.14076991"></polygon>
                            </g>
                            <g id="Group-17" transform="translate(13.650403, 0.958724)">
                                <mask id="mask-6" fill="white">
                                    <use xlink:href="#path-5"></use>
                                </mask>
                                <g id="Clip-16"></g>
                                <path d="M0.294494039,0.290640112 C0.304974927,0.28993452 0.314398918,0.288082341 0.322413715,0.284995377 C0.330428511,0.281820214 0.336946038,0.276792872 0.341878221,0.269825153 C0.346898478,0.262857434 0.349276495,0.253243746 0.349276495,0.241160486 C0.349276495,0.230841205 0.347338851,0.222638701 0.343639715,0.216288374 C0.339852503,0.210026247 0.334568022,0.204910706 0.32813857,0.20111815 C0.321621043,0.197325594 0.314398918,0.194767824 0.306384122,0.19335664 C0.298193176,0.192121855 0.289738006,0.191416263 0.280754388,0.191416263 L0.215579119,0.191416263 L0.215579119,0.291698499 L0.262699077,0.291698499 C0.273356114,0.291698499 0.284013151,0.291345704 0.294494039,0.290640112 Z M0.179908871,0.450456658 L0.179908871,0.161075815 L0.290794902,0.161075815 C0.323470611,0.161075815 0.347338851,0.167955335 0.362399623,0.181626176 C0.37737232,0.195297018 0.384946743,0.215229986 0.384946743,0.241160486 C0.384946743,0.253772939 0.3830091,0.264709613 0.379221888,0.274146903 C0.375434677,0.283584194 0.370150195,0.291522102 0.363456519,0.298048826 C0.356674768,0.30457555 0.348924196,0.309691091 0.340292876,0.313571846 C0.331485408,0.317364402 0.322149491,0.320186769 0.312373201,0.32186255 L0.39842217,0.450456658 L0.356674768,0.450456658 L0.275381832,0.32186255 L0.215579119,0.32186255 L0.215579119,0.450456658 L0.179908871,0.450456658 Z M0.186250248,0.107980031 C0.16053244,0.119181301 0.138337618,0.134439724 0.11957771,0.153667101 C0.100553577,0.172982677 0.0859331794,0.195649814 0.0754522916,0.221668512 C0.0649714038,0.247775409 0.0595988479,0.275734485 0.0595988479,0.305810336 C0.0595988479,0.335886187 0.0649714038,0.363845263 0.0754522916,0.389863961 C0.0859331794,0.415970858 0.100553577,0.438637995 0.11957771,0.457865372 C0.138337618,0.477180948 0.16053244,0.492439371 0.186250248,0.503640641 C0.211968057,0.514841911 0.240151957,0.520486646 0.270625799,0.520486646 C0.300659267,0.520486646 0.328578943,0.514841911 0.354296752,0.503640641 C0.380102635,0.492439371 0.402473606,0.477180948 0.421145439,0.457865372 C0.439993422,0.438637995 0.45478997,0.415970858 0.465623156,0.389863961 C0.476280194,0.363845263 0.481740824,0.335886187 0.481740824,0.305810336 C0.481740824,0.275734485 0.476280194,0.247775409 0.465623156,0.221668512 C0.45478997,0.195649814 0.439993422,0.172982677 0.421145439,0.153667101 C0.402473606,0.134439724 0.380102635,0.119181301 0.354296752,0.107980031 C0.328578943,0.0967787605 0.300659267,0.091045827 0.270625799,0.091045827 C0.240151957,0.091045827 0.211968057,0.0967787605 0.186250248,0.107980031 Z M0.369445598,0.0746408173 C0.399831365,0.08734147 0.426429921,0.105069464 0.448712817,0.127736601 C0.471083787,0.150403738 0.488698725,0.17703983 0.501645704,0.207556676 C0.514328459,0.237985323 0.520669836,0.270707143 0.520669836,0.305810336 C0.520669836,0.341266324 0.514328459,0.374076344 0.501645704,0.404416792 C0.488698725,0.434669041 0.471083787,0.461128734 0.448712817,0.483531274 C0.426429921,0.505845615 0.399831365,0.52357361 0.369445598,0.536274262 C0.339059831,0.549151313 0.306031823,0.555501639 0.270625799,0.555501639 C0.235307849,0.555501639 0.202279841,0.549151313 0.171894074,0.536274262 C0.141420232,0.52357361 0.114909752,0.505845615 0.0925387809,0.483531274 C0.070255885,0.461128734 0.0526409476,0.434669041 0.0398701179,0.404416792 C0.0270112136,0.374076344 0.0206698361,0.341266324 0.0206698361,0.305810336 C0.0206698361,0.270707143 0.0270112136,0.237985323 0.0398701179,0.207556676 C0.0526409476,0.17703983 0.070255885,0.150403738 0.0925387809,0.127736601 C0.114909752,0.105069464 0.141420232,0.08734147 0.171894074,0.0746408173 C0.202279841,0.0618519657 0.235307849,0.0555016393 0.270625799,0.0555016393 C0.306031823,0.0555016393 0.339059831,0.0618519657 0.369445598,0.0746408173 Z" id="Fill-15" fill="#A20000" mask="url(#mask-6)"></path>
                            </g>
                        </g>
                    </g>
                </g>
            </g>
        </g>
    </g>
</svg>