<?xml version="1.0" encoding="UTF-8"?>
<svg width="15px" height="15px" viewBox="0 0 15 15" version="1.1" xmlns="http://www.w3.org/2000/svg" xmlns:xlink="http://www.w3.org/1999/xlink">
    <!-- Generator: Sketch 51.2 (57519) - http://www.bohemiancoding.com/sketch -->
    <title>calendar</title>
    <desc>Created with Sketch.</desc>
    <defs></defs>
    <g id="Symbols" stroke="none" stroke-width="1" fill="none" fill-rule="evenodd">
        <g id="icon_calendar" fill="#222222" fill-rule="nonzero">
            <g id="calendar">
                <path d="M13.2421875,1.171875 C12.5960156,1.171875 12.3616406,1.171875 12.5390625,1.171875 L12.5390625,0 L11.3671875,0 L11.3671875,1.171875 L3.6328125,1.171875 L3.6328125,0 C3.3554947,0 3.15537015,0 3.03243886,0 C2.90950757,0 2.71900711,0 2.4609375,0 L2.4609375,1.171875 L1.7578125,1.171875 C0.788554688,1.171875 0,1.96042969 0,2.9296875 L0,13.2421875 C0,14.2114453 0.788554688,15 1.7578125,15 L13.2421875,15 C14.2114453,15 15,14.2114453 15,13.2421875 L15,2.9296875 C15,1.96042969 14.2114453,1.171875 13.2421875,1.171875 Z M13.828125,13.2421875 C13.828125,13.5652734 13.5652734,13.828125 13.2421875,13.828125 L1.7578125,13.828125 C1.43472656,13.828125 1.171875,13.5652734 1.171875,13.2421875 L1.171875,5.5078125 L13.828125,5.5078125 L13.828125,13.2421875 Z M13.828125,4.3359375 L1.171875,4.3359375 L1.171875,2.9296875 C1.171875,2.60660156 1.43472656,2.34375 1.7578125,2.34375 L2.4609375,2.34375 L2.4609375,3.515625 L3.6328125,3.515625 L3.6328125,2.34375 L11.3671875,2.34375 L11.3671875,3.515625 L12.5390625,3.515625 L12.5390625,2.34375 L13.2421875,2.34375 C13.5652734,2.34375 13.828125,2.60660156 13.828125,2.9296875 L13.828125,4.3359375 Z" id="Shape"></path>
                <rect id="Rectangle-path" x="2.19512195" y="6.95121951" width="1.09756098" height="1.09756098"></rect>
                <rect id="Rectangle-path" x="4.3902439" y="6.95121951" width="1.09756098" height="1.09756098"></rect>
                <rect id="Rectangle-path" x="6.95121951" y="6.95121951" width="1.09756098" height="1.09756098"></rect>
                <rect id="Rectangle-path" x="9.14634146" y="6.95121951" width="1.09756098" height="1.09756098"></rect>
                <rect id="Rectangle-path" x="11.7073171" y="6.95121951" width="1.09756098" height="1.09756098"></rect>
                <rect id="Rectangle-path" x="2.19512195" y="9.14634146" width="1.09756098" height="1.09756098"></rect>
                <rect id="Rectangle-path" x="4.3902439" y="9.14634146" width="1.09756098" height="1.09756098"></rect>
                <rect id="Rectangle-path" x="6.95121951" y="9.14634146" width="1.09756098" height="1.09756098"></rect>
                <rect id="Rectangle-path" x="9.14634146" y="9.14634146" width="1.09756098" height="1.09756098"></rect>
                <rect id="Rectangle-path" x="2.19512195" y="11.3414634" width="1.09756098" height="1.09756098"></rect>
                <rect id="Rectangle-path" x="4.3902439" y="11.3414634" width="1.09756098" height="1.09756098"></rect>
                <rect id="Rectangle-path" x="6.95121951" y="11.3414634" width="1.09756098" height="1.09756098"></rect>
                <rect id="Rectangle-path" x="9.14634146" y="11.3414634" width="1.09756098" height="1.09756098"></rect>
                <rect id="Rectangle-path" x="11.7073171" y="9.14634146" width="1.09756098" height="1.09756098"></rect>
            </g>
        </g>
    </g>
</svg>