<?xml version="1.0" encoding="UTF-8"?>
<svg width="44px" height="44px" viewBox="0 0 44 44" version="1.1" xmlns="http://www.w3.org/2000/svg" xmlns:xlink="http://www.w3.org/1999/xlink">
    <!-- Generator: Sketch 51.2 (57519) - http://www.bohemiancoding.com/sketch -->
    <title>New CTA Order</title>
    <desc>Created with Sketch.</desc>
    <defs>
        <polygon id="path-1" points="0 4.66666667 17.9998759 4.66666667 17.9998759 20 0 20"></polygon>
    </defs>
    <g id="Symbols" stroke="none" stroke-width="1" fill="none" fill-rule="evenodd">
        <g id="Dashbaord-Header" transform="translate(-232.000000, -18.000000)">
            <g id="Group" transform="translate(0.000000, 18.000000)">
                <g id="Group-6" transform="translate(232.000000, 0.000000)">
                    <g id="New-CTA-Order">
                        <circle id="Oval-4" fill="#550505" cx="22" cy="22" r="22"></circle>
                        <g id="Group-4" stroke-width="1" transform="translate(13.000000, 12.000000)">
                            <path d="M13.9653931,8 C13.7940828,8 13.6550483,7.85066667 13.6550483,7.66666667 L13.6550483,3 C13.6550483,1.798 12.2560138,0.666666667 11.1722897,0.666666667 L6.51711724,0.666666667 C5.40049655,0.666666667 4.34470345,1.80066667 4.34470345,3 L4.34470345,7.66666667 C4.34470345,7.85066667 4.20566897,8 4.03435862,8 C3.86304828,8 3.72401379,7.85066667 3.72401379,7.66666667 L3.72401379,3 C3.72401379,1.43 5.0553931,0 6.51711724,0 L11.1722897,0 C12.5694621,0 14.2757379,1.38466667 14.2757379,3 L14.2757379,7.66666667 C14.2757379,7.85066667 14.1367034,8 13.9653931,8" id="Fill-1" fill="#FFFFFF"></path>
                            <mask id="mask-2" fill="white">
                                <use xlink:href="#path-1"></use>
                            </mask>
                            <g id="Clip-4"></g>
                            <path d="M15.8274621,16.6666667 L2.17228966,16.6666667 C2.00097931,16.6666667 1.86194483,16.5173333 1.86194483,16.3333333 C1.86194483,16.1493333 2.00097931,16 2.17228966,16 L15.8274621,16 C15.9987724,16 16.1378069,16.1493333 16.1378069,16.3333333 C16.1378069,16.5173333 15.9987724,16.6666667 15.8274621,16.6666667 M17.689531,4.66666667 L14.8964276,4.66666667 L14.8964276,7.66666667 C14.8964276,8.218 14.4787034,8.66666667 13.9653931,8.66666667 C13.4520828,8.66666667 13.0343586,8.218 13.0343586,7.66666667 L13.0343586,4.66666667 L4.9653931,4.66666667 L4.9653931,7.66666667 C4.9653931,8.218 4.54766897,8.66666667 4.03435862,8.66666667 C3.52104828,8.66666667 3.10332414,8.218 3.10332414,7.66666667 L3.10332414,4.66666667 L0.31022069,4.66666667 C0.138910345,4.66666667 -0.000124137931,4.816 -0.000124137931,5 L-0.000124137931,19.6666667 C-0.000124137931,19.8506667 0.138910345,20 0.31022069,20 L17.689531,20 C17.8608414,20 17.9998759,19.8506667 17.9998759,19.6666667 L17.9998759,5 C17.9998759,4.816 17.8608414,4.66666667 17.689531,4.66666667" id="Fill-3" fill="#FFFFFF" mask="url(#mask-2)"></path>
                        </g>
                    </g>
                </g>
            </g>
        </g>
    </g>
</svg>