<?xml version="1.0" encoding="UTF-8"?>
<svg width="13px" height="13px" viewBox="0 0 13 13" version="1.1" xmlns="http://www.w3.org/2000/svg" xmlns:xlink="http://www.w3.org/1999/xlink">
    <!-- Generator: Sketch 51.2 (57519) - http://www.bohemiancoding.com/sketch -->
    <title>calendar</title>
    <desc>Created with Sketch.</desc>
    <defs></defs>
    <g id="Symbols" stroke="none" stroke-width="1" fill="none" fill-rule="evenodd">
        <g id="Lable-Checkin-Date" transform="translate(-11.000000, -6.000000)" fill-rule="nonzero">
            <g id="calendar" transform="translate(12.000000, 6.000000)">
                <path d="M9.48083496,1.55957031 L8.96520996,1.55957031 L8.96520996,0.700195312 L8.10583496,0.700195312 L8.10583496,1.55957031 L2.6640625,1.55957031 L2.6640625,0.700195312 L1.8046875,0.700195312 L1.8046875,1.55957031 L1.2890625,1.55957031 C0.578273438,1.55957031 0,2.13784375 0,2.84863281 L0,10.7109375 C0,11.4217266 0.578273438,12 1.2890625,12 L9.48083496,12 C10.191624,12 10.7698975,11.4217266 10.7698975,10.7109375 L10.7698975,2.84863281 C10.7698975,2.13784375 10.191624,1.55957031 9.48083496,1.55957031 Z M9.90661621,4.60784912 L0.859375,4.60784912 L0.859375,2.98461914 C0.859375,2.74768945 1.05213281,2.55493164 1.2890625,2.55493164 L1.8046875,2.55493164 L1.8046875,3.41430664 L2.6640625,3.41430664 L2.6640625,2.55493164 L8.10192871,2.55493164 L8.10192871,3.41430664 L8.96130371,3.41430664 L8.96130371,2.55493164 L9.47692871,2.55493164 C9.7138584,2.55493164 9.90661621,2.74768945 9.90661621,2.98461914 L9.90661621,4.60784912 Z" id="Shape" stroke="#AAAAAA" stroke-width="0.5" fill="#AAAAAA"></path>
                <g id="Group" transform="translate(2.000000, 6.000000)" fill="#FFFFFF">
                    <rect id="Rectangle-path" x="0" y="0" width="1.75" height="1.6"></rect>
                    <rect id="Rectangle-path" x="2.625" y="0" width="1.75" height="1.6"></rect>
                    <rect id="Rectangle-path" x="5.25" y="0" width="1.75" height="1.6"></rect>
                    <rect id="Rectangle-path" x="0" y="2.4" width="1.75" height="1.6"></rect>
                    <rect id="Rectangle-path" x="2.625" y="2.4" width="1.75" height="1.6"></rect>
                    <rect id="Rectangle-path" x="5.25" y="2.4" width="1.75" height="1.6"></rect>
                </g>
            </g>
        </g>
    </g>
</svg>