<?xml version="1.0" encoding="UTF-8"?>
<svg width="26px" height="26px" viewBox="0 0 26 26" version="1.1" xmlns="http://www.w3.org/2000/svg" xmlns:xlink="http://www.w3.org/1999/xlink">
    <!-- Generator: Sketch 51.2 (57519) - http://www.bohemiancoding.com/sketch -->
    <title>warning</title>
    <desc>Created with Sketch.</desc>
    <defs></defs>
    <g id="Mobile---Master-Registration" stroke="none" stroke-width="1" fill="none" fill-rule="evenodd">
        <g id="Cancel-Popup" transform="translate(-174.000000, -290.000000)">
            <g id="Loading" transform="translate(0.000000, 235.000000)">
                <g id="Group-3" transform="translate(0.000000, 55.000000)">
                    <g id="warning" transform="translate(174.000000, 0.000000)">
                        <rect id="Rectangle-2" fill="#FFFFFF" x="9.53333333" y="5.2" width="6.06666667" height="18.2"></rect>
                        <path d="M25.4597943,19.2318081 L16.2752395,1.91255493 C14.7995865,-0.635825049 11.2023935,-0.639211012 9.72476006,1.91255493 L0.54066227,19.2318081 C-0.967846206,21.835822 0.858502253,25.1333333 3.81514027,25.1333333 L22.1845546,25.1333333 C25.1387043,25.1333333 26.9683028,21.8384787 25.4597943,19.2318081 Z M12.9999998,21.1411623 C12.1601791,21.1411623 11.4765616,20.4399033 11.4765616,19.5784101 C11.4765616,18.7169169 12.1601791,18.0156579 12.9999998,18.0156579 C13.8398205,18.0156579 14.5234379,18.7169169 14.5234379,19.5784101 C14.5234379,20.4399033 13.8398205,21.1411623 12.9999998,21.1411623 Z M14.5234379,15.0257582 C14.5234379,15.820083 13.8398205,16.4666667 12.9999998,16.4666667 C12.1601791,16.4666667 11.4765616,15.820083 11.4765616,15.0257582 L11.4765616,7.82121565 C11.4765616,7.02689082 12.1601791,6.38030715 12.9999998,6.38030715 C13.8398205,6.38030715 14.5234379,7.02689082 14.5234379,7.82121565 L14.5234379,15.0257582 Z" id="Shape" fill="#FFB91A" fill-rule="nonzero"></path>
                    </g>
                </g>
            </g>
        </g>
    </g>
</svg>