<?xml version="1.0" encoding="UTF-8"?>
<svg width="156px" height="48px" viewBox="0 0 156 48" version="1.1" xmlns="http://www.w3.org/2000/svg" xmlns:xlink="http://www.w3.org/1999/xlink">
    <!-- Generator: Sketch 51.2 (57519) - http://www.bohemiancoding.com/sketch -->
    <title>Logo_Red</title>
    <desc>Created with Sketch.</desc>
    <defs></defs>
    <g id="Mobile---Master-Registration" stroke="none" stroke-width="1" fill="none" fill-rule="evenodd">
        <g id="Ready-to-Scan" transform="translate(-110.000000, -185.000000)" fill="#FFFFFF">
            <g id="Logo_State" transform="translate(0.000000, 185.000000)">
                <g id="Logo_White" transform="translate(108.000000, 0.000000)">
                    <path d="M154.63719,2.76334457 C154.756013,2.75549884 154.861547,2.7335308 154.953791,2.69822501 C155.044472,2.66291923 155.117954,2.60642997 155.173457,2.52640353 C155.230523,2.44794623 155.257102,2.33967515 155.257102,2.20237488 C155.257102,2.08625807 155.235996,1.99210931 155.193782,1.9199286 C155.150005,1.84853245 155.091375,1.7920432 155.017111,1.74810711 C154.94441,1.70495559 154.861547,1.67514182 154.771648,1.66023493 C154.679404,1.64532804 154.584032,1.63748231 154.481626,1.63748231 L153.744454,1.63748231 L153.744454,2.77511317 L154.277594,2.77511317 C154.397981,2.77511317 154.519149,2.77040573 154.63719,2.76334457 Z M153.341081,4.57649278 L153.341081,1.29383934 L154.595758,1.29383934 C154.965517,1.29383934 155.235996,1.37229664 155.405631,1.52685752 C155.575267,1.68220298 155.661257,1.90737543 155.661257,2.20237488 C155.661257,2.34438259 155.638587,2.4691297 155.595592,2.5766162 C155.553378,2.68253355 155.493185,2.77354402 155.418139,2.84650931 C155.340747,2.92104375 155.253975,2.97910215 155.154696,3.02303824 C155.056198,3.06618975 154.950664,3.09757267 154.84044,3.11797157 L155.813694,4.57649278 L155.340747,4.57649278 L154.421433,3.11797157 L153.744454,3.11797157 L153.744454,4.57649278 L153.341081,4.57649278 Z M153.413782,0.691287273 C153.122197,0.818388099 152.87048,0.99099416 152.657849,1.2106746 C152.443655,1.42957047 152.277146,1.68534127 152.159105,1.98034072 C152.040282,2.27690931 151.980089,2.5938768 151.980089,2.93438149 C151.980089,3.27567074 152.040282,3.59342281 152.159105,3.88842226 C152.277146,4.18499085 152.443655,4.44076165 152.657849,4.65887295 C152.87048,4.87855339 153.122197,5.05194402 153.413782,5.17826028 C153.704586,5.3053611 154.02275,5.36891152 154.367493,5.36891152 C154.708328,5.36891152 155.022583,5.3053611 155.314169,5.17826028 C155.604972,5.05194402 155.858253,4.87855339 156.070884,4.65887295 C156.283514,4.44076165 156.450805,4.18499085 156.574318,3.88842226 C156.693923,3.59342281 156.756461,3.27567074 156.756461,2.93438149 C156.756461,2.5938768 156.693923,2.27690931 156.574318,1.98034072 C156.450805,1.68534127 156.283514,1.42957047 156.070884,1.2106746 C155.858253,0.99099416 155.604972,0.818388099 155.314169,0.691287273 C155.022583,0.564186446 154.708328,0.500636033 154.367493,0.500636033 C154.02275,0.500636033 153.704586,0.564186446 153.413782,0.691287273 Z M155.485368,0.313123085 C155.829329,0.458269091 156.129513,0.65911978 156.382012,0.916459725 C156.636075,1.1730151 156.835416,1.47429113 156.980818,1.8210724 C157.124656,2.16628452 157.196575,2.53817212 157.196575,2.93438149 C157.196575,3.33686744 157.124656,3.70953961 156.980818,4.05318259 C156.835416,4.39604099 156.636075,4.69496331 156.382012,4.94994953 C156.129513,5.20336661 155.829329,5.40343273 155.485368,5.54857873 C155.142188,5.69372474 154.768521,5.76590545 154.367493,5.76590545 C153.968029,5.76590545 153.594362,5.69372474 153.251182,5.54857873 C152.905657,5.40343273 152.605473,5.20336661 152.352974,4.94994953 C152.100475,4.69496331 151.901134,4.39604099 151.756514,4.05318259 C151.611112,3.70953961 151.539193,3.33686744 151.539193,2.93438149 C151.539193,2.53817212 151.611112,2.16628452 151.756514,1.8210724 C151.901134,1.47429113 152.100475,1.1730151 152.352974,0.916459725 C152.605473,0.65911978 152.905657,0.458269091 153.251182,0.313123085 C153.594362,0.16797708 153.968029,0.0965809366 154.367493,0.0965809366 C154.768521,0.0965809366 155.142188,0.16797708 155.485368,0.313123085 Z M125.978174,24.8977181 C125.657664,21.994798 125.71004,17.7416278 122.726176,17.7416278 C120.272324,17.7416278 119.663356,22.5094779 119.525772,24.8977181 L125.978174,24.8977181 Z M119.525772,31.6983969 C119.525772,34.8178592 119.97683,40.6896035 123.081081,40.710787 C124.940036,40.7280476 125.283997,38.0353931 125.819483,35.1324729 L133.654766,35.1536564 C133.182601,39.2797258 130.560677,47.782928 122.887212,47.782928 C114.61885,47.782928 110.888433,38.926668 110.888433,29.0763539 C110.888433,19.0204818 114.833826,10.5125721 122.77777,10.5125721 C131.096162,10.5125721 133.971367,20.0082592 133.971367,29.2921115 L133.971367,31.6983969 L119.525772,31.6983969 Z M81.1912789,7.84573003e-05 L89.3079851,7.84573003e-05 L95.077155,17.2316553 L100.843198,7.84573003e-05 L108.955214,7.84573003e-05 L108.955214,47.1223176 L101.109768,47.1223176 L101.109768,18.6454559 L95.1404752,36.4850768 L95.0099262,36.4850768 L89.0375064,18.6454559 L89.0375064,47.1223176 L81.1912789,47.1223176 L81.1912789,7.84573003e-05 Z M47.3955125,24.8977181 C47.0750031,21.994798 47.1289425,17.7416278 44.1435143,17.7416278 C41.6904444,17.7416278 41.0806948,22.5094779 40.943892,24.8977181 L47.3955125,24.8977181 Z M40.943892,31.6983969 C40.943892,34.8178592 41.39026,40.6896035 44.4952929,40.710787 C46.3573746,40.7280476 46.6989908,38.0353931 47.2329126,35.1324729 L55.0728863,35.1536564 C54.6007211,39.2797258 51.9819245,47.782928 44.3014238,47.782928 C36.0400975,47.782928 32.3057716,38.926668 32.3057716,29.0763539 C32.3057716,19.0204818 36.2488195,10.5125721 44.1958902,10.5125721 C52.5135011,10.5125721 55.392614,20.0082592 55.392614,29.2921115 L55.392614,31.6983969 L40.943892,31.6983969 Z M2.60861748,7.84573003e-05 L10.7253237,7.84573003e-05 L16.4913667,17.2316553 L22.2605367,7.84573003e-05 L30.3733342,7.84573003e-05 L30.3733342,47.1223176 L22.5310154,47.1223176 L22.5310154,18.6454559 L16.5578138,36.4850768 L16.4241379,36.4850768 L10.454845,18.6454559 L10.454845,47.1223176 L2.60861748,47.1223176 L2.60861748,7.84573003e-05 Z M71.3117708,30.2924421 L71.3117708,27.872819 C71.3117708,21.478549 70.1712262,17.974646 68.1582705,17.974646 C66.1484418,17.974646 65.2119289,21.478549 65.2119289,27.872819 L65.2119289,30.2924421 C65.2119289,36.7573236 66.1484418,40.194538 68.1582705,40.194538 C70.1712262,40.194538 71.3117708,36.7573236 71.3117708,30.2924421 Z M57.2953456,30.6980663 L57.2953456,27.4664101 C57.2953456,14.6111815 60.6474054,10.3674261 64.9383232,10.3674261 C68.429531,10.3674261 70.0414589,13.2617159 71.2492323,15.416938 L71.2492323,7.84573003e-05 L79.1642521,7.84573003e-05 L79.1642521,47.1223176 L71.2492323,47.1223176 L71.2492323,42.6102382 C70.1086877,44.7693831 68.429531,47.8001887 64.9383232,47.8001887 C60.6474054,47.8001887 57.2953456,43.6882415 57.2953456,30.6980663 Z M135.999957,11.043728 L143.915758,11.043728 L143.915758,15.3494647 C145.323655,12.5869831 147.136487,10.3674261 150.287643,10.3674261 C154.842004,10.3674261 157.196575,14.272246 157.196575,19.7901479 L157.196575,47.1223176 L149.283901,47.1223176 L149.283901,21.6095727 C149.283901,18.9843914 148.277814,17.5007639 146.665104,17.5007639 C145.056303,17.5007639 143.915758,18.9843914 143.915758,21.6095727 L143.915758,47.1223176 L135.999957,47.1223176 L135.999957,11.043728 Z" id="Fill-1"></path>
                </g>
            </g>
        </g>
    </g>
</svg>