<?xml version="1.0" encoding="UTF-8"?>
<svg width="23px" height="22px" viewBox="0 0 23 22" version="1.1" xmlns="http://www.w3.org/2000/svg" xmlns:xlink="http://www.w3.org/1999/xlink">
    <!-- Generator: Sketch 51.2 (57519) - http://www.bohemiancoding.com/sketch -->
    <title>Group</title>
    <desc>Created with Sketch.</desc>
    <defs></defs>
    <g id="Symbols" stroke="none" stroke-width="1" fill="none" fill-rule="evenodd">
        <g id="User-OFF" transform="translate(-38.000000, -10.000000)" stroke="#222222" stroke-width="0.5">
            <g id="Group-22">
                <g transform="translate(39.000000, 11.000000)">
                    <g id="Group">
                        <g id="Group-2" transform="translate(12.000000, 9.500000)" fill="#000000">
                            <path d="M7.85006452,6.77180645 L7.85651613,6.77180645 L7.85006452,6.77180645 Z M5.16812903,8.09567742 C5.61264516,8.09567742 5.97780645,8.32148387 6.14877419,8.67567742 C6.69909677,8.51245161 7.20167742,8.20987097 7.62490323,7.78729032 C7.39006452,7.44341935 7.35780645,6.986 7.56941935,6.61309677 C7.78103226,6.23825806 8.18877419,6.03374194 8.59716129,6.06858065 C8.67716129,5.76277419 8.71651613,5.47374194 8.71651613,5.19245161 C8.71651613,4.90987097 8.67716129,4.62083871 8.59716129,4.31503226 C8.18877419,4.34987097 7.78103226,4.146 7.56941935,3.77116129 C7.35780645,3.39825806 7.39006452,2.94083871 7.62490323,2.59632258 C7.20167742,2.17374194 6.69909677,1.87116129 6.14877419,1.70858065 C5.97780645,2.06277419 5.61329032,2.28922581 5.16812903,2.28922581 C4.72296774,2.28922581 4.35780645,2.06277419 4.18748387,1.70858065 C3.63651613,1.87116129 3.13458065,2.17374194 2.71135484,2.59632258 C2.94619355,2.94083871 2.97845161,3.39825806 2.76683871,3.77116129 C2.55458065,4.146 2.14877419,4.34987097 1.73909677,4.31503226 C1.65909677,4.62083871 1.61974194,4.90987097 1.61974194,5.19245161 C1.61974194,5.47374194 1.65909677,5.76341935 1.73909677,6.06858065 C2.14877419,6.03374194 2.55458065,6.23825806 2.76683871,6.61309677 C2.97845161,6.986 2.94619355,7.44341935 2.71135484,7.78729032 C3.13393548,8.20987097 3.63651613,8.51245161 4.18748387,8.67567742 C4.35780645,8.32148387 4.72296774,8.09567742 5.16812903,8.09567742 Z M4.40941935,9.386 C4.38812903,9.386 4.36683871,9.38406452 4.34490323,9.37954839 C3.45135484,9.1976129 2.64941935,8.72019355 2.02812903,7.99825806 C1.97006452,7.93180645 1.94232258,7.84341935 1.95135484,7.75503226 C1.9603871,7.66729032 2.00554839,7.58664516 2.07587097,7.53245161 C2.26232258,7.38858065 2.31845161,7.13051613 2.20554839,6.93051613 C2.09393548,6.73309677 1.85780645,6.65503226 1.64554839,6.74858065 C1.56296774,6.78470968 1.46877419,6.78470968 1.38554839,6.74664516 C1.30296774,6.70987097 1.23974194,6.64019355 1.21070968,6.55374194 C1.052,6.07503226 0.974580645,5.62922581 0.974580645,5.19245161 C0.974580645,4.75503226 1.052,4.30922581 1.21070968,3.82987097 C1.23974194,3.74406452 1.30296774,3.67374194 1.38554839,3.6376129 C1.46812903,3.60019355 1.56232258,3.59954839 1.64554839,3.63567742 C1.85780645,3.72793548 2.09393548,3.65180645 2.20554839,3.45309677 C2.31845161,3.25374194 2.26232258,2.99503226 2.07587097,2.85180645 C2.00554839,2.7976129 1.9603871,2.71696774 1.95135484,2.62858065 C1.94232258,2.54019355 1.97006452,2.45245161 2.02812903,2.38535484 C2.65006452,1.66341935 3.45135484,1.18664516 4.34554839,1.00535484 C4.43393548,0.987290323 4.52748387,1.00729032 4.60103226,1.06148387 C4.67458065,1.11567742 4.72103226,1.19825806 4.73006452,1.28922581 C4.75651613,1.55051613 4.97329032,1.64406452 5.16812903,1.64406452 C5.36232258,1.64406452 5.57909677,1.55051613 5.60554839,1.28858065 C5.61522581,1.1976129 5.66232258,1.11567742 5.73587097,1.06148387 C5.80877419,1.00664516 5.90167742,0.986645161 5.99070968,1.00535484 C6.88425806,1.18664516 7.68619355,1.66341935 8.30812903,2.38535484 C8.36619355,2.45245161 8.39393548,2.54019355 8.38490323,2.62858065 C8.37587097,2.71696774 8.33070968,2.7976129 8.2603871,2.85180645 C8.07393548,2.99503226 8.01780645,3.25374194 8.13070968,3.45309677 C8.24232258,3.65116129 8.47780645,3.72793548 8.69070968,3.63567742 C8.77393548,3.59954839 8.86812903,3.60019355 8.95070968,3.6376129 C9.03329032,3.67374194 9.09651613,3.74406452 9.12490323,3.82987097 C9.28425806,4.30858065 9.36167742,4.7543871 9.36167742,5.19245161 C9.36167742,5.62922581 9.28425806,6.0743871 9.12490323,6.55374194 C9.09716129,6.63954839 9.03329032,6.70987097 8.95070968,6.74664516 C8.86812903,6.78470968 8.77393548,6.78406452 8.69070968,6.74858065 C8.47780645,6.65503226 8.24232258,6.73180645 8.13070968,6.93051613 C8.01780645,7.13051613 8.07393548,7.38858065 8.2603871,7.53245161 C8.33070968,7.58664516 8.37587097,7.66729032 8.38490323,7.75503226 C8.39393548,7.84341935 8.36619355,7.93180645 8.30812903,7.99825806 C7.68619355,8.72083871 6.88490323,9.1976129 5.99135484,9.37954839 C5.90103226,9.3976129 5.80877419,9.3776129 5.73587097,9.32277419 C5.66232258,9.26922581 5.61522581,9.18664516 5.60554839,9.09632258 C5.57909677,8.83374194 5.36232258,8.74083871 5.16812903,8.74083871 C4.97329032,8.74083871 4.75651613,8.83374194 4.73006452,9.09567742 C4.72103226,9.186 4.67393548,9.26858065 4.6003871,9.32277419 C4.54490323,9.36470968 4.47780645,9.386 4.40941935,9.386 Z" id="Fill-1590"></path>
                            <path d="M5.168,4.08872811 C4.55969873,4.08872811 4.06440553,4.58357987 4.06440553,5.19232258 C4.06440553,5.80106529 4.55969873,6.29591705 5.168,6.29591705 C5.77630127,6.29591705 6.27159447,5.80106529 6.27159447,5.19232258 C6.27159447,4.58357987 5.77630127,4.08872811 5.168,4.08872811 M5.168,6.73735484 C4.31602507,6.73735484 3.62296774,6.04429751 3.62296774,5.19232258 C3.62296774,4.34034765 4.31602507,3.64729032 5.168,3.64729032 C6.01997493,3.64729032 6.71303226,4.34034765 6.71303226,5.19232258 C6.71303226,6.04429751 6.01997493,6.73735484 5.168,6.73735484" id="Fill-1591"></path>
                        </g>
                        <path d="M0.416666667,20 C0.306666667,20 0.2,19.9558333 0.121666667,19.8783333 C0.0441666667,19.8 0,19.6941667 0,19.5833333 C0,16.9808333 0.888333333,15.4941667 2.715,15.0375 L5.90666667,14.24 L6.19666667,13.0791667 C5.39166667,12.2475 4.83666667,11.1225 4.66416667,9.9775 C4.14333333,9.87583333 3.73,9.44833333 3.6625,8.905 L3.45416667,7.23833333 C3.40916667,6.8825 3.52,6.525 3.75666667,6.25583333 C3.90833333,6.08416667 4.10333333,5.95916667 4.3175,5.89166667 C4.2575,5.38333333 4.16666667,4.54083333 4.16666667,4.16666667 C4.16666667,2.55833333 4.65,0.909166667 8.2,0.835 C9.44333333,0 10.7791667,0 11.3583333,0 C12.8283333,0 13.89,0.484166667 14.515,1.43833333 C15.3283333,2.68083333 14.94,3.53666667 14.47,4.03583333 L14.1583333,4.3475 L14.0816667,5.91666667 C14.2725,5.98916667 14.445,6.10666667 14.5816667,6.26333333 C14.815,6.53083333 14.9241667,6.88583333 14.88,7.23833333 L14.6716667,8.905 C14.6075,9.41416667 14.2408333,9.82166667 13.7666667,9.95416667 C13.7175,10.2825 13.6333333,10.6191667 13.5166667,10.9583333 C13.4408333,11.1766667 13.2033333,11.2916667 12.9866667,11.2166667 C12.7691667,11.1416667 12.6533333,10.9041667 12.7283333,10.6866667 C12.8633333,10.2966667 12.9466667,9.91416667 12.975,9.55083333 C12.9916667,9.33416667 13.1733333,9.16666667 13.39,9.16666667 C13.6408333,9.16666667 13.8191667,9.01 13.845,8.80166667 L14.0533333,7.135 C14.0675,7.01666667 14.0325,6.90166667 13.9541667,6.81166667 C13.875,6.72083333 13.765,6.67 13.6433333,6.66833333 C13.5308333,6.6675 13.4225,6.62 13.3458333,6.5375 C13.2675,6.45583333 13.2266667,6.345 13.2325,6.23166667 L13.3341667,4.14666667 C13.3391667,4.04333333 13.3825,3.945 13.455,3.87166667 L13.8716667,3.455 C14.1333333,3.1775 14.3716667,2.74 13.8175,1.895 C13.3566667,1.19083333 12.53,0.833333333 11.3583333,0.833333333 C10.5041667,0.833333333 9.50666667,0.923333333 8.57583333,1.58916667 C8.50666667,1.63833333 8.4225,1.66583333 8.3375,1.66666667 C5.255,1.6975 5,2.86666667 5,4.16666667 C5,4.57416667 5.14,5.77083333 5.19333333,6.19833333 C5.20916667,6.31666667 5.17166667,6.43583333 5.0925,6.52583333 C5.01416667,6.615 4.9,6.66666667 4.78,6.66666667 L4.69416667,6.66666667 C4.5725,6.66666667 4.46166667,6.71666667 4.38166667,6.8075 C4.30166667,6.89833333 4.26583333,7.01416667 4.28083333,7.135 L4.48916667,8.80166667 C4.515,9.01 4.6925,9.16666667 4.9025,9.16666667 L5.0375,9.16666667 C5.255,9.16666667 5.43583333,9.33333333 5.45333333,9.55 C5.545,10.6983333 6.10166667,11.8558333 6.94416667,12.645 C7.05333333,12.7483333 7.09916667,12.9033333 7.0625,13.05 L6.65416667,14.6841667 C6.61666667,14.8333333 6.5,14.95 6.35083333,14.9875 L2.9175,15.8458333 C1.58833333,16.1783333 0.9225,17.2375 0.841666667,19.1666667 L14.965,19.165 C15.195,19.165 15.3816667,19.3516667 15.3816667,19.5816667 C15.3816667,19.8116667 15.1958333,19.9983333 14.965,19.9983333 L0.416666667,20 Z" id="Fill-2726" fill="#222222"></path>
                    </g>
                </g>
            </g>
        </g>
    </g>
</svg>