<?xml version="1.0" encoding="UTF-8"?>
<svg width="22px" height="22px" viewBox="0 0 22 22" version="1.1" xmlns="http://www.w3.org/2000/svg" xmlns:xlink="http://www.w3.org/1999/xlink">
    <!-- Generator: Sketch 51.2 (57519) - http://www.bohemiancoding.com/sketch -->
    <title>Group 5</title>
    <desc>Created with Sketch.</desc>
    <defs></defs>
    <g id="Symbols" stroke="none" stroke-width="1" fill="none" fill-rule="evenodd">
        <g id="Inventory-ON" transform="translate(-39.000000, -10.000000)" fill="#A20000" stroke="#A20000" stroke-width="0.5">
            <g id="Group-22">
                <g transform="translate(27.000000, 11.000000)">
                    <g id="Group-5" transform="translate(13.000000, 0.000000)">
                        <path d="M14.9991667,12.5 C13.6208333,12.5 12.4991667,13.6216667 12.4991667,15 C12.4991667,16.3783333 13.6208333,17.5 14.9991667,17.5 C16.3775,17.5 17.4991667,16.3783333 17.4991667,15 C17.4991667,13.6216667 16.3775,12.5 14.9991667,12.5 M14.9991667,18.3333333 C13.1608333,18.3333333 11.6658333,16.8383333 11.6658333,15 C11.6658333,13.1616667 13.1608333,11.6666667 14.9991667,11.6666667 C16.8375,11.6666667 18.3325,13.1616667 18.3325,15 C18.3325,16.8383333 16.8375,18.3333333 14.9991667,18.3333333" id="Fill-8419"></path>
                        <path d="M19.5825,20 C19.4758333,20 19.3691667,19.9591667 19.2875,19.8783333 L16.7875,17.3783333 C16.625,17.215 16.625,16.9516667 16.7875,16.7883333 C16.9508333,16.6258333 17.2141667,16.6258333 17.3775,16.7883333 L19.8775,19.2883333 C20.04,19.4516667 20.04,19.715 19.8775,19.8783333 C19.7958333,19.9591667 19.6891667,20 19.5825,20" id="Fill-8421"></path>
                        <path d="M9.58333333,20 C9.35333333,20 9.16666667,19.8133333 9.16666667,19.5833333 L9.16666667,0.416666667 C9.16666667,0.186666667 9.35333333,0 9.58333333,0 C9.81333333,0 10,0.186666667 10,0.416666667 L10,19.5833333 C10,19.8133333 9.81333333,20 9.58333333,20" id="Fill-8423"></path>
                        <path d="M5.41666667,10.8333333 C5.31,10.8333333 5.20333333,10.7925 5.12166667,10.7116667 L4.58333333,10.1725 L4.045,10.7116667 C3.88166667,10.8741667 3.61833333,10.8741667 3.455,10.7116667 L2.62166667,9.87833333 C2.54416667,9.8 2.5,9.69416667 2.5,9.58333333 L2.5,2.5 C2.5,2.27 2.68666667,2.08333333 2.91666667,2.08333333 C3.14666667,2.08333333 3.33333333,2.27 3.33333333,2.5 L3.33333333,9.41083333 L3.75,9.8275 L4.28833333,9.28833333 C4.45166667,9.12583333 4.715,9.12583333 4.87833333,9.28833333 L5.41666667,9.8275 L5.83333333,9.41083333 L5.83333333,1.66666667 C5.83333333,1.43666667 6.02,1.25 6.25,1.25 C6.48,1.25 6.66666667,1.43666667 6.66666667,1.66666667 L6.66666667,9.58333333 C6.66666667,9.69416667 6.6225,9.8 6.545,9.87833333 L5.71166667,10.7116667 C5.63,10.7925 5.52333333,10.8333333 5.41666667,10.8333333" id="Fill-8429"></path>
                        <path d="M9.58333333,20 C9.54666667,20 9.50916667,19.995 9.47333333,19.985 L0.306666667,17.485 C0.125833333,17.4358333 0,17.2716667 0,17.0833333 L0,2.91666667 C0,2.72833333 0.125833333,2.56416667 0.306666667,2.515 L9.47333333,0.015 C9.545,-0.005 9.62166667,-0.005 9.69333333,0.015 L18.86,2.515 C19.0408333,2.56416667 19.1666667,2.72833333 19.1666667,2.91666667 L19.1666667,12.375 C19.1666667,12.605 18.98,12.7916667 18.75,12.7916667 C18.52,12.7916667 18.3333333,12.605 18.3333333,12.375 L18.3333333,3.235 L9.58333333,0.848333333 L0.833333333,3.235 L0.833333333,16.765 L9.58333333,19.1516667 L12.3341667,18.4016667 C12.56,18.3383333 12.7858333,18.4725 12.8458333,18.6941667 C12.9058333,18.9158333 12.7758333,19.145 12.5533333,19.205 L9.69333333,19.985 C9.6575,19.995 9.62,20 9.58333333,20" id="Fill-8431"></path>
                    </g>
                </g>
            </g>
        </g>
    </g>
</svg>