<?xml version="1.0" encoding="UTF-8"?>
<svg width="21px" height="22px" viewBox="0 0 21 22" version="1.1" xmlns="http://www.w3.org/2000/svg" xmlns:xlink="http://www.w3.org/1999/xlink">
    <!-- Generator: Sketch 51.2 (57519) - http://www.bohemiancoding.com/sketch -->
    <title>stethoscope</title>
    <desc>Created with Sketch.</desc>
    <defs></defs>
    <g id="Symbols" stroke="none" stroke-width="1" fill="none" fill-rule="evenodd">
        <g id="Doctor-OFF" transform="translate(-40.000000, -10.000000)" fill="#222222" fill-rule="nonzero">
            <g id="Group-22">
                <g transform="translate(33.000000, 11.000000)">
                    <g id="stethoscope" transform="translate(7.500000, 0.000000)">
                        <circle id="Oval" cx="17.2601096" cy="8.04383562" r="1.0739726"></circle>
                        <path d="M17.2601096,5.34794521 C15.7696986,5.34794521 14.5642192,6.55342466 14.5642192,8.04383562 C14.5642192,9.40273973 15.5724384,10.5205479 16.865589,10.7178082 L16.865589,14.0054795 C16.865589,16.8767123 14.5423014,19.2219178 11.6929863,19.2219178 C8.84367123,19.2219178 6.52038356,16.8767123 6.52038356,14.0054795 L6.52038356,11.5945205 C9.58887671,11.3315068 11.9998356,8.76712329 11.9998356,5.63287671 C11.9998356,4.20821918 11.495726,2.84931507 10.5751781,1.77534247 C10.6847671,1.6 10.7505205,1.40273973 10.7505205,1.18356164 C10.7505205,0.526027397 10.2244932,9.73346213e-16 9.5669589,9.73346213e-16 C8.90942466,9.73346213e-16 8.38339726,0.526027397 8.38339726,1.18356164 C8.38339726,1.84109589 8.90942466,2.36712329 9.5669589,2.36712329 C9.72038356,2.36712329 9.87380822,2.34520548 10.0053151,2.27945205 C10.7943562,3.22191781 11.2327123,4.38356164 11.2327123,5.63287671 C11.2327123,8.50410959 8.88750685,10.8493151 6.01627397,10.8493151 C3.1450411,10.8493151 0.799835616,8.50410959 0.799835616,5.63287671 C0.799835616,4.36164384 1.26010959,3.15616438 2.07106849,2.23561644 C2.24641096,2.32328767 2.42175342,2.36712329 2.6190137,2.36712329 C3.27654795,2.36712329 3.80257534,1.84109589 3.80257534,1.18356164 C3.80257534,0.526027397 3.27654795,0 2.6190137,0 C1.96147945,0 1.43545205,0.526027397 1.43545205,1.18356164 C1.43545205,1.35890411 1.47928767,1.51232877 1.5450411,1.66575342 C0.580657534,2.76164384 0.0327123288,4.14246575 0.0327123288,5.63287671 C0.0327123288,8.85479452 2.57517808,11.4630137 5.75326027,11.5945205 L5.75326027,13.9835616 C5.75326027,17.2931507 8.42723288,19.9671233 11.6929863,19.9671233 C14.9587397,19.9671233 17.6327123,17.2931507 17.6327123,13.9835616 L17.6327123,10.6958904 C18.925863,10.4986301 19.9340822,9.38082192 19.9340822,8.02191781 C19.956,6.55342466 18.7286027,5.34794521 17.2601096,5.34794521 Z M17.2601096,9.95068493 C16.2080548,9.95068493 15.3532603,9.09589041 15.3532603,8.04383562 C15.3532603,6.99178082 16.2080548,6.1369863 17.2601096,6.1369863 C18.3121644,6.1369863 19.1669589,6.99178082 19.1669589,8.04383562 C19.1669589,9.09589041 18.3121644,9.95068493 17.2601096,9.95068493 Z" id="Shape" stroke="#222222" stroke-width="0.5"></path>
                    </g>
                </g>
            </g>
        </g>
    </g>
</svg>