<?xml version="1.0" encoding="UTF-8"?>
<svg width="22px" height="22px" viewBox="0 0 22 22" version="1.1" xmlns="http://www.w3.org/2000/svg" xmlns:xlink="http://www.w3.org/1999/xlink">
    <!-- Generator: Sketch 51.2 (57519) - http://www.bohemiancoding.com/sketch -->
    <title>Group 4</title>
    <desc>Created with Sketch.</desc>
    <defs></defs>
    <g id="Symbols" stroke="none" stroke-width="1" fill="none" fill-rule="evenodd">
        <g id="Customer-ON" transform="translate(-40.000000, -10.000000)" fill="#A20000" stroke="#A20000" stroke-width="0.5">
            <g id="Group-22">
                <g transform="translate(26.000000, 11.000000)">
                    <g id="Group-4" transform="translate(15.000000, 0.000000)">
                        <path d="M14.9991667,12.5 C13.6208333,12.5 12.4991667,13.6216667 12.4991667,15 C12.4991667,16.3783333 13.6208333,17.5 14.9991667,17.5 C16.3775,17.5 17.4991667,16.3783333 17.4991667,15 C17.4991667,13.6216667 16.3775,12.5 14.9991667,12.5 M14.9991667,18.3333333 C13.1608333,18.3333333 11.6658333,16.8383333 11.6658333,15 C11.6658333,13.1616667 13.1608333,11.6666667 14.9991667,11.6666667 C16.8375,11.6666667 18.3325,13.1616667 18.3325,15 C18.3325,16.8383333 16.8375,18.3333333 14.9991667,18.3333333" id="Fill-2725"></path>
                        <path d="M0.416666667,20 C0.306666667,20 0.2,19.9558333 0.121666667,19.8783333 C0.0441666667,19.8 0,19.6941667 0,19.5833333 C0,16.9808333 0.888333333,15.4941667 2.715,15.0375 L5.90666667,14.24 L6.19666667,13.0791667 C5.39166667,12.2475 4.83666667,11.1225 4.66416667,9.9775 C4.14333333,9.87583333 3.73,9.44833333 3.6625,8.905 L3.45416667,7.23833333 C3.40916667,6.8825 3.52,6.525 3.75666667,6.25583333 C3.90833333,6.08416667 4.10333333,5.95916667 4.3175,5.89166667 C4.2575,5.38333333 4.16666667,4.54083333 4.16666667,4.16666667 C4.16666667,2.55833333 4.65,0.909166667 8.2,0.835 C9.44333333,0 10.7791667,0 11.3583333,0 C12.8283333,0 13.89,0.484166667 14.515,1.43833333 C15.3283333,2.68083333 14.94,3.53666667 14.47,4.03583333 L14.1583333,4.3475 L14.0816667,5.91666667 C14.2725,5.98916667 14.445,6.10666667 14.5816667,6.26333333 C14.815,6.53083333 14.9241667,6.88583333 14.88,7.23833333 L14.6716667,8.905 C14.6075,9.41416667 14.2408333,9.82166667 13.7666667,9.95416667 C13.7175,10.2825 13.6333333,10.6191667 13.5166667,10.9583333 C13.4408333,11.1766667 13.2033333,11.2916667 12.9866667,11.2166667 C12.7691667,11.1416667 12.6533333,10.9041667 12.7283333,10.6866667 C12.8633333,10.2966667 12.9466667,9.91416667 12.975,9.55083333 C12.9916667,9.33416667 13.1733333,9.16666667 13.39,9.16666667 C13.6408333,9.16666667 13.8191667,9.01 13.845,8.80166667 L14.0533333,7.135 C14.0675,7.01666667 14.0325,6.90166667 13.9541667,6.81166667 C13.875,6.72083333 13.765,6.67 13.6433333,6.66833333 C13.5308333,6.6675 13.4225,6.62 13.3458333,6.5375 C13.2675,6.45583333 13.2266667,6.345 13.2325,6.23166667 L13.3341667,4.14666667 C13.3391667,4.04333333 13.3825,3.945 13.455,3.87166667 L13.8716667,3.455 C14.1333333,3.1775 14.3716667,2.74 13.8175,1.895 C13.3566667,1.19083333 12.53,0.833333333 11.3583333,0.833333333 C10.5041667,0.833333333 9.50666667,0.923333333 8.57583333,1.58916667 C8.50666667,1.63833333 8.4225,1.66583333 8.3375,1.66666667 C5.255,1.6975 5,2.86666667 5,4.16666667 C5,4.57416667 5.14,5.77083333 5.19333333,6.19833333 C5.20916667,6.31666667 5.17166667,6.43583333 5.0925,6.52583333 C5.01416667,6.615 4.9,6.66666667 4.78,6.66666667 L4.69416667,6.66666667 C4.5725,6.66666667 4.46166667,6.71666667 4.38166667,6.8075 C4.30166667,6.89833333 4.26583333,7.01416667 4.28083333,7.135 L4.48916667,8.80166667 C4.515,9.01 4.6925,9.16666667 4.9025,9.16666667 L5.0375,9.16666667 C5.255,9.16666667 5.43583333,9.33333333 5.45333333,9.55 C5.545,10.6983333 6.10166667,11.8558333 6.94416667,12.645 C7.05333333,12.7483333 7.09916667,12.9033333 7.0625,13.05 L6.65416667,14.6841667 C6.61666667,14.8333333 6.5,14.95 6.35083333,14.9875 L2.9175,15.8458333 C1.58833333,16.1783333 0.9225,17.2375 0.841666667,19.1666667 L14.965,19.165 C15.195,19.165 15.3816667,19.3516667 15.3816667,19.5816667 C15.3816667,19.8116667 15.1958333,19.9983333 14.965,19.9983333 L0.416666667,20 Z" id="Fill-2726"></path>
                        <path d="M19.5825,20 C19.4758333,20 19.3691667,19.9591667 19.2883333,19.8783333 L16.7883333,17.3783333 C16.625,17.215 16.625,16.9516667 16.7883333,16.7883333 C16.9508333,16.6258333 17.2141667,16.6258333 17.3775,16.7883333 L19.8775,19.2883333 C20.04,19.4516667 20.04,19.715 19.8775,19.8783333 C19.7958333,19.9591667 19.6891667,20 19.5825,20" id="Fill-2727"></path>
                    </g>
                </g>
            </g>
        </g>
    </g>
</svg>