<?xml version="1.0" encoding="UTF-8"?>
<svg width="31px" height="21px" viewBox="0 0 31 21" version="1.1" xmlns="http://www.w3.org/2000/svg" xmlns:xlink="http://www.w3.org/1999/xlink">
    <!-- Generator: Sketch 51.2 (57519) - http://www.bohemiancoding.com/sketch -->
    <title>Transaction</title>
    <desc>Created with Sketch.</desc>
    <defs>
        <polygon id="path-1" points="0 0.001 21 0.001 21 14.0009 0 14.0009"></polygon>
    </defs>
    <g id="Symbols" stroke="none" stroke-width="1" fill="none" fill-rule="evenodd">
        <g id="Transaction-OFF" transform="translate(-34.000000, -11.000000)">
            <g id="Group-22">
                <g transform="translate(22.000000, 10.000000)">
                    <g id="Transaction" transform="translate(13.000000, 0.000000)">
                        <path d="M16.6504,19.0888 C16.1604,19.5738 13.4004,20.1768 12.5894,19.9518 L5.0954,18.5458 C5.2164,17.9498 5.4214,16.8738 5.6164,15.5988 L5.9804,13.6068 C6.6004,12.4568 8.1804,11.9428 9.5004,11.9428 C9.6294,11.9428 9.7594,11.8898 9.8504,11.7958 L13.3194,8.3258 C13.4604,8.2058 13.8594,8.0448 14.1204,8.2728 L14.2994,8.4728 C14.6094,8.7848 14.8304,9.2898 14.6094,9.6298 L12.6004,12.1488 C12.5094,12.2688 12.3904,12.3878 12.2804,12.5128 C11.9304,12.8848 11.5004,13.3488 11.5004,13.9428 L11.5004,14.4428 C11.5004,15.0798 11.7704,15.6528 12.2904,16.0988 C13.0604,16.7728 14.3794,17.1078 15.5004,16.9428 L18.0004,16.9638 L19.8394,16.9528 L16.6504,19.0888 Z M1.0004,11.9768 C2.3594,12.0298 4.2404,12.2418 4.9804,12.6748 C4.8844,13.6638 4.7504,14.6518 4.6124,15.5408 L4.0504,18.6318 C3.3874,19.0158 2.0354,19.7008 1.0004,19.8918 L1.0004,11.9768 Z M21.5004,15.9428 L18.0004,15.9638 L15.4304,15.9478 C14.5204,16.0768 13.5004,15.8288 12.9404,15.3438 C12.6504,15.0898 12.5004,14.7868 12.5004,14.4428 L12.5004,13.9428 C12.5004,13.7418 12.7804,13.4398 13.0094,13.1948 C13.1604,13.0388 13.2904,12.8868 13.3904,12.7548 L15.4204,10.2198 C15.9004,9.4978 15.7304,8.4878 15.0304,7.7898 L14.8304,7.5658 C14.1404,6.9648 13.2104,7.1148 12.6504,7.5888 L9.2904,10.9468 C8.1844,10.9848 6.8414,11.3338 5.8904,12.1548 C5.8734,12.1308 5.8624,12.1018 5.8394,12.0798 C4.7704,11.0588 1.2104,10.9718 0.5004,10.9638 C0.3594,10.9678 0.2404,11.0148 0.1504,11.1088 C0.0494,11.2028 0.0004,11.3298 0.0004,11.4638 L0.0004,20.4428 C0.0004,20.7188 0.2194,20.9428 0.5004,20.9428 C1.9554,20.9428 4.0044,19.8138 4.5934,19.4688 L12.3594,20.9238 C12.5404,20.9748 12.7904,20.9988 13.0694,20.9988 C14.4204,20.9988 16.6794,20.4668 17.2804,19.8598 L21.7804,16.8598 C21.9604,16.7358 22.0404,16.5078 21.9804,16.2958 C21.9104,16.0868 21.7194,15.9428 21.5004,15.9428 Z" id="Fill-1" stroke="#222222" stroke-width="0.25" fill="#222222"></path>
                        <g id="Group-5" transform="translate(9.000000, 0.999000)">
                            <mask id="mask-2" fill="white">
                                <use xlink:href="#path-1"></use>
                            </mask>
                            <g id="Clip-4"></g>
                            <path d="M1,4.0009 L1,3.0009 C1,1.8799 1.88,1.0009 3,1.0009 L17.98,1.0009 C19.09,1.0009 20,1.9079 20,3.0219 L20,4.0009 L1,4.0009 Z M17.98,0.0009 L3,0.0009 C1.32,0.0009 0,1.3189 0,3.0009 L0,6.5009 C0,6.7769 0.22,7.0009 0.5,7.0009 C0.78,7.0009 1,6.7769 1,6.5009 L1,5.0009 L20,5.0009 L20,10.9799 C20,12.0939 19.09,13.0009 17.98,13.0009 L6.5,13.0009 C6.22,13.0009 6,13.2249 6,13.5009 C6,13.7769 6.22,14.0009 6.5,14.0009 L17.98,14.0009 C19.64,14.0009 21,12.6469 21,10.9799 L21,3.0219 C21,1.3569 19.64,0.0009 17.98,0.0009 Z" id="Fill-3" stroke="#222222" stroke-width="0.25" fill="#222222" mask="url(#mask-2)"></path>
                        </g>
                    </g>
                </g>
            </g>
        </g>
    </g>
</svg>